<?xml version="1.0" standalone="no"?>
<!DOCTYPE svg PUBLIC "-//W3C//DTD SVG 1.1//EN" "http://www.w3.org/Graphics/SVG/1.1/DTD/svg11.dtd" >
<svg xmlns="http://www.w3.org/2000/svg">
<metadata>Generated by IcoMoon</metadata>
<defs>
<font id="icomoon" horiz-adv-x="1024">
<font-face units-per-em="1024" ascent="960" descent="-64" />
<missing-glyph horiz-adv-x="1024" />
<glyph unicode="&#x20;" horiz-adv-x="512" d="" />
<glyph unicode="&#xe900;" d="M512-64c-282.77 0-512 229.23-512 512s229.23 512 512 512c282.77 0 512-229.23 512-512v0c0-282.77-229.23-512-512-512v0zM512 734.866c-34.417 0-62.318-27.901-62.318-62.318s27.901-62.318 62.318-62.318c34.417 0 62.318 27.901 62.318 62.318v0c0 34.417-27.901 62.318-62.318 62.318v0zM574.318 485.449c0.001 0.13 0.002 0.285 0.002 0.439 0 27.55-22.334 49.883-49.883 49.883-0.001 0-0.001 0-0.002 0h-24.868c-27.55 0-49.883-22.334-49.883-49.883v0-299.739c0-27.55 22.334-49.883 49.883-49.883v0h25.015c27.55 0 49.883 22.334 49.883 49.883v0z" />
<glyph unicode="&#xe901;" d="M574.318 684.983c0-34.417-27.901-62.318-62.318-62.318s-62.318 27.901-62.318 62.318c0 34.417 27.901 62.318 62.318 62.318s62.318-27.901 62.318-62.318z" />
<glyph unicode="&#xe902;" d="M499.566 148.699h25.015c27.55 0 49.883 22.334 49.883 49.883v0 299.301c0 27.55-22.334 49.883-49.883 49.883v0h-25.015c-27.55 0-49.883-22.334-49.883-49.883v-299.301c0-27.55 22.334-49.883 49.883-49.883v0z" />
<glyph unicode="&#xe903;" d="M512 747.301c34.417 0 62.318-27.901 62.318-62.318s-27.901-62.318-62.318-62.318c-34.417 0-62.318 27.901-62.318 62.318v0c0 34.417 27.901 62.318 62.318 62.318v0zM449.682 497.883c0 27.55 22.334 49.883 49.883 49.883v0h25.015c27.55 0 49.883-22.334 49.883-49.883v-299.301c0-27.55-22.334-49.883-49.883-49.883v0h-25.015c-27.55 0-49.883 22.334-49.883 49.883v0z" />
<glyph unicode="&#xe904;" glyph-name="add" horiz-adv-x="982" d="M982.323 455.27q0-45.875-47.923-45.875h-394.24v-350.515q0-22.938 1.024-45.875c0.178-2.636 0.28-5.715 0.28-8.817 0-10.924-1.259-21.554-3.639-31.753l0.185 0.941c-2.404-10.636-7.51-19.837-14.558-27.154l0.017 0.018c-7.399-6.453-17.14-10.388-27.8-10.388-1.244 0-2.476 0.054-3.693 0.159l0.158-0.011q-48.026 0-47.923 52.122v421.274h-329.523q-20.48 0-41.677-1.024c-2.976-0.212-6.449-0.333-9.95-0.333-9.369 0-18.535 0.867-27.423 2.524l0.919-0.142c-10.208 1.805-19.156 6.269-26.374 12.645l0.058-0.050c-6.513 7.334-10.491 17.045-10.491 27.686 0 1.61 0.091 3.199 0.268 4.761l-0.018-0.191c-0.094 1.059-0.148 2.29-0.148 3.535 0 10.66 3.935 20.401 10.431 27.85l-0.043-0.051c7.023 6.925 15.853 12.034 25.719 14.558l0.393 0.085c8.56 2.184 18.388 3.438 28.508 3.438 2.796 0 5.57-0.096 8.318-0.284l-0.371 0.020q20.48-1.024 41.677-1.024h329.728v337.92q0 20.48-1.024 42.803c-0.179 2.575-0.281 5.581-0.281 8.611 0 10.639 1.26 20.983 3.638 30.893l-0.182-0.899c2.385 10.455 7.101 19.568 13.586 27.117l-0.070-0.083c7.361 6.514 17.099 10.492 27.765 10.492 1.618 0 3.215-0.092 4.785-0.27l-0.192 0.018q47.923 0 47.923-52.122v-404.582h327.68q18.739 0 38.605 1.024c2.875 0.191 6.232 0.299 9.615 0.299 9.485 0 18.77-0.854 27.783-2.489l-0.943 0.142c10.846-1.86 20.359-6.586 28.015-13.364l-0.059 0.052c7.229-7.706 11.669-18.102 11.669-29.535 0-1.463-0.073-2.909-0.215-4.334l0.015 0.18z" />
<glyph unicode="&#xe905;" glyph-name="album" d="M564.382 139.382c-10.201-9.172-23.765-14.781-38.64-14.781-17.911 0-33.923 8.134-44.543 20.909l-0.076 0.095-104.212 125.479-204.327-206.297c89.901-79.915 208.992-128.733 339.485-128.733 192.463 0 360.124 106.195 447.583 263.186l1.333 2.606-131.308 174.080zM512 960c-282.719-0.068-511.881-229.272-511.881-512 0-125.924 45.46-241.231 120.863-330.404l-0.622 0.755 217.403 219.372c10.261 10.479 24.554 16.976 40.365 16.976 17.559 0 33.246-8.013 43.604-20.581l0.077-0.097 105.945-127.291 266.713 237.804c10.047 9.157 23.467 14.764 38.197 14.764 18.483 0 34.904-8.829 45.275-22.5l0.103-0.141 118.154-156.199c17.863 49.929 28.188 107.53 28.188 167.542 0 282.77-229.23 512-512 512-0.135 0-0.27 0-0.404 0h0.021zM338.708 464.935c-59.662 0.090-107.993 48.476-107.993 108.15 0 59.73 48.42 108.15 108.15 108.15s108.15-48.42 108.15-108.15v0c0 0 0 0 0 0 0-59.73-48.42-108.15-108.15-108.15-0.055 0-0.111 0-0.166 0h0.008z" />
<glyph unicode="&#xe906;" glyph-name="assessment" horiz-adv-x="1109" d="M1109.333 215.211v627.2c-0.212 21.724-17.873 39.253-39.627 39.253-0.001 0-0.001 0-0.002 0h-475.426v78.336h-79.343v-78.336h-475.307c-0.001 0-0.001 0-0.002 0-21.754 0-39.415-17.529-39.627-39.233v-627.22c0.222-21.632 17.81-39.083 39.473-39.083 0.055 0 0.109 0 0.164 0h475.299v-61.781l-189.082-109.739 39.629-68.608 178.261 102.912h23.774l178.295-102.912 39.646 68.608-191.147 109.739v61.781h475.358c0.006 0 0.012 0 0.019 0 21.751 0 39.407 17.531 39.61 39.234v0.019-0.171zM899.413 724.821l51.49-59.733-392.226-331.264-202.052 168.619-146.551-121.515-50.534 59.733 198.11 163.669 202.052-168.619z" />
<glyph unicode="&#xe907;" glyph-name="assetcount" horiz-adv-x="1023" d="M1022.816 448c0 0.111 0 0.243 0 0.376 0 282.443-228.965 511.408-511.408 511.408-141.315 0-269.242-57.317-361.803-149.971l-0.005-0.005c-92.517-92.631-149.733-220.539-149.733-361.81 0-282.211 228.325-511.094 510.324-511.997h0.086c58.286 0.174 114.216 10.015 166.351 28.001l-3.616-1.085c13.642 4.647 23.28 17.348 23.28 32.299 0 18.803-15.243 34.047-34.047 34.047-3.852 0-7.554-0.64-11.006-1.818l0.24 0.071c-41.624-14.265-89.582-22.5-139.463-22.5-244.922 0-443.471 198.549-443.471 443.471 0 122.189 49.417 232.836 129.355 313.046l-0.012-0.012c80.217 80.281 191.069 129.94 313.52 129.94s233.304-49.659 313.517-129.937l0.002-0.002c80.093-80.291 129.618-191.105 129.618-313.487 0-112.608-41.93-215.423-111.030-293.683l0.415 0.479-186.314 186.099 119.023 118.97c6.128 6.232 9.911 14.787 9.911 24.225s-3.783 17.992-9.916 24.229l-205.043 204.881c-6.232 6.128-14.787 9.911-24.225 9.911s-17.992-3.783-24.229-9.916l0.005 0.005-276.968-276.537c-6.128-6.232-9.911-14.787-9.911-24.225s3.783-17.992 9.916-24.229l-0.005 0.005 205.64-205.048c6.032-6.257 14.486-10.143 23.848-10.143s17.816 3.886 23.838 10.133l0.010 0.010 109.818 109.603 211.454-210.915c6.051-6.224 14.495-10.094 23.843-10.12h0.005c9.436 0.018 18.024 3.636 24.466 9.552l-0.026-0.024c1.227 1.236 2.358 2.572 3.378 3.993l0.067 0.098 0.754 0.7c92.387 92.089 149.549 219.468 149.549 360.199 0 0.604-0.001 1.207-0.003 1.81v-0.093zM475.663 255.495l-156.76 156.76 228.303 228.303 156.76-156.76z" />
<glyph unicode="&#xe908;" glyph-name="assets" d="M512.14-63.845c-282.354 0.494-511.055 229.5-511.055 511.922 0 282.727 229.195 511.922 511.922 511.922 46.808 0 92.148-6.282 135.224-18.049l-3.59 0.836c17.134-4.703 29.514-20.139 29.514-38.467 0-3.637-0.488-7.16-1.401-10.508l0.065 0.279c-4.433-17.188-19.797-29.683-38.079-29.683-3.774 0-7.424 0.532-10.878 1.526l0.277-0.068c-33.597 9.25-72.175 14.57-111.995 14.578h-0.004c-238.265-0.309-431.297-193.531-431.297-431.838 0-238.498 193.341-431.839 431.839-431.839s431.839 193.341 431.839 431.839c0 36.366-4.495 71.683-12.96 105.424l0.633-2.978c-0.62 2.631-0.975 5.651-0.975 8.755 0 21.978 17.816 39.794 39.794 39.794 18.363 0 33.822-12.438 38.409-29.35l0.064-0.279c9.282-36.478 14.609-78.354 14.609-121.475 0-282.822-229.162-512.12-511.933-512.341h-0.021zM690.684 687.523c-11.322 0.003-21.578 4.562-29.035 11.945l0.003-0.003c-7.404 7.314-11.99 17.467-11.99 28.69s4.586 21.376 11.986 28.686l0.004 0.004 154.445 152.91c7.47 7.335 17.718 11.862 29.023 11.862s21.553-4.527 29.030-11.868l-0.006 0.006c7.451-7.321 12.068-17.505 12.068-28.768s-4.617-21.446-12.062-28.762l-0.006-0.006-154.414-152.755c-7.448-7.381-17.702-11.941-29.021-11.941-0.009 0-0.018 0-0.027 0h0.001zM802.188 569.971c-0.073 0-0.159-0.001-0.245-0.001-22.44 0-40.631 18.191-40.631 40.631 0 11.2 4.532 21.342 11.862 28.692l-0.001-0.001 154.476 152.91c7.475 7.336 17.728 11.865 29.039 11.865s21.564-4.528 29.045-11.871l-0.006 0.006c7.404-7.314 11.99-17.467 11.99-28.69s-4.586-21.376-11.986-28.686l-0.004-0.004-154.507-152.91c-7.35-7.377-17.518-11.942-28.753-11.942-0.098 0-0.196 0-0.293 0.001h0.015zM512.186 240.579c-0.026 0-0.058 0-0.089 0-8.83 0-16.831 3.553-22.649 9.308l-175.502 175.394c-5.806 5.818-9.397 13.849-9.397 22.719s3.59 16.901 9.397 22.72l175.504 175.396c5.806 5.819 13.835 9.42 22.704 9.42s16.898-3.6 22.703-9.419l175.522-175.398c5.797-5.793 9.383-13.799 9.383-22.642s-3.586-16.849-9.383-22.642l-175.521-175.552c-5.811-5.752-13.807-9.305-22.633-9.305-0.019 0-0.039 0-0.058 0h0.003zM382.073 448.078l130.113-130.113 130.066 130.113-130.066 129.958z" />
<glyph unicode="&#xe909;" horiz-adv-x="980" d="M473.963 959.86c4.117 0.352 8.91 0.553 13.749 0.553 31.626 0 61.248-8.583 86.663-23.546l-0.801 0.436 26.619-20.875c14.851 3.222 28.020 9.527 45.673 12.609 70.051 11.909 129.874-54.639 115.303-126.091-11.488-56.040-40.069-106.197-79.718-133.657l0.841-1.681c35.866-11.348 68.229-37.827 96.25-58.422 98.071-72.292 162.237-175.267 193.34-314.807 5.709-27.697 8.977-59.528 8.977-92.122 0-4.21-0.055-8.408-0.163-12.592l0.013 0.618c0-127.632-38.388-216.877-134.497-247.139-29.001-9.107-70.891-6.725-108.719-6.725h-457.29c-90.505 0-142.903-4.063-196.142 35.025-68.65 50.717-100.593 182.412-75.655 307.943s80.418 238.172 163.358 304.86c23.095 19.762 48.557 38.764 75.247 56.031l2.79 1.691 49.736 25.919-25.779 28.020c-22.057 27.523-38.691 60.406-47.683 96.319l-0.371 1.752c-16.812 68.79 18.073 113.902 68.51 129.313 10.469 3.966 22.573 6.262 35.213 6.262 3.090 0 6.149-0.137 9.169-0.406l-0.39 0.028c17.373-2.662 30.682-10.087 45.673-11.769 16.477 16.679 36.975 29.348 59.924 36.435l1.021 0.271 29.141 5.744zM455.749 296.060v-49.736c-39.088 0.701-116.144 14.010-111.24-30.962 3.783-32.784 75.234-22.276 111.24-21.716-0.981-34.325 0-55.060 28.020-60.944 2.427-0.498 5.217-0.783 8.074-0.783 4.937 0 9.675 0.851 14.076 2.415l-0.294-0.091c18.213 8.826 19.894 31.803 19.054 60.103 38.248 0 107.598-11.628 113.622 21.716 8.266 45.673-75.374 33.064-113.622 32.644 0 15.831 0 31.803 0.841 47.494 38.248-0.701 123.289-11.348 112.081 35.866-7.706 32.644-73.133 23.397-112.922 22.556v28.020l98.071 107.738c5.448 5.897 8.79 13.81 8.79 22.505 0 6.859-2.080 13.232-5.643 18.523l0.075-0.118c-5.568 6.24-13.634 10.151-22.613 10.151-6.785 0-13.049-2.233-18.096-6.005l0.079 0.057c-31.663-23.117-66.408-65.287-93.728-94.288l-1.261 0.28c-7.425 8.266-14.851 16.812-22.416 25.078-14.010 17.933-43.712 56.040-61.364 68.369-12.749 8.546-34.185 15.551-44.832 0s-2.942-37.407 5.884-49.176c26.059-35.446 63.886-67.529 90.505-103.535l-1.681-29.141c-39.509 0.701-121.188 14.010-110.26-35.866 6.865-31.383 72.993-21.576 110.4-20.875z" />
<glyph unicode="&#xe90a;" horiz-adv-x="980" d="M524.539 248.566c0 15.831 0 31.803 0.841 47.494 38.248-0.701 123.289-11.348 112.081 35.866-7.706 32.644-73.133 23.397-112.922 22.556v28.020l98.071 107.738c5.448 5.897 8.79 13.81 8.79 22.505 0 6.859-2.080 13.232-5.643 18.523l0.075-0.118c-5.568 6.24-13.634 10.151-22.613 10.151-6.785 0-13.049-2.233-18.096-6.005l0.079 0.057c-31.663-23.117-66.408-65.287-93.728-94.288l-1.121 0.42c-7.425 8.266-14.851 16.812-22.416 25.078-14.010 17.933-43.712 56.040-61.364 68.369-12.749 8.546-34.185 15.551-44.832 0s-2.942-37.407 5.884-49.176c26.059-35.446 63.886-67.529 90.505-103.535l-1.681-29.141c-39.509 0.701-121.188 14.010-110.26-35.866 6.865-31.383 72.993-21.576 110.4-20.875v-50.016c-39.088 0.701-116.144 14.010-111.24-30.962 3.783-32.784 75.234-22.276 111.24-21.716-0.981-34.325 0-55.060 28.020-60.944 2.265-0.433 4.869-0.68 7.532-0.68 4.826 0 9.462 0.813 13.779 2.311l-0.295-0.089c18.213 8.826 19.894 31.803 19.054 60.103 38.248 0 107.598-11.628 113.622 21.716 8.266 45.533-75.515 32.924-113.762 32.503z" />
<glyph unicode="&#xe90b;" horiz-adv-x="980" d="M638.161 215.922c-6.024-33.344-75.374-22.276-113.622-21.716 0.841-28.020-0.841-51.277-19.054-60.103-3.7-1.181-7.955-1.861-12.369-1.861-3.263 0-6.44 0.372-9.489 1.076l0.283-0.055c-28.020 5.884-29.141 26.619-28.020 60.944-35.866 0-107.458-11.068-111.24 21.716-5.044 44.412 72.012 31.663 111.1 30.402v49.736c-37.547-0.701-103.535-10.508-110.4 20.875-10.928 49.316 70.891 36.566 110.26 35.866l1.681 29.141c-26.619 36.006-64.447 68.089-90.505 103.535-8.826 11.909-15.831 34.465-5.884 49.176s32.083 8.546 44.832 0c17.793-11.909 47.074-50.577 61.364-68.369 7.565-8.266 14.991-16.672 22.416-25.078l1.681-0.841c28.020 29.001 62.065 71.171 93.728 94.288 4.968 3.715 11.232 5.948 18.017 5.948 8.979 0 17.044-3.91 22.586-10.121l0.026-0.030c3.488-5.173 5.568-11.546 5.568-18.405 0-8.694-3.342-16.608-8.81-22.527l0.020 0.022-98.071-107.738v-28.020c39.789 0.701 105.216 10.087 112.922-22.556 11.348-47.214-73.833-36.566-112.081-35.866 0-15.691 0-31.663-0.841-47.494 38.528 1.121 122.308 13.73 113.902-31.943z" />
<glyph unicode="&#xe90c;" glyph-name="banlance-num" horiz-adv-x="964" d="M963.765 314.519c0-258.193-153.11-378.47-481.882-378.47s-481.882 120.278-481.882 378.47c0 190.103 133.979 388.477 312.115 471.859l-45.891 57.376c-0.369 0.353-0.61 0.739-0.98 1.092-0.349 0.338-0.67 0.7-0.963 1.085l-0.017 0.024-7.405 9.268c-3.857 4.939-6.184 11.235-6.184 18.075 0 1.369 0.093 2.717 0.274 4.036l-0.017-0.153c-0.235 1.716-0.37 3.7-0.37 5.715 0 0.069 0 0.138 0 0.207v-0.011c0 0.068 0 0.148 0 0.228 0 20.962 11.288 39.287 28.117 49.228l0.266 0.145c3.816 3.617 8.625 6.224 13.975 7.37l0.192 0.035c52.825 10.805 114.447 17.944 177.392 19.815l1.627 0.038h2.104c63.674-1.344 124.852-8.555 184.052-21.119l-6.398 1.137c5.398-1.289 10.068-3.877 13.829-7.419l-0.015 0.014c17.032-10.211 28.254-28.572 28.254-49.555 0-0.016 0-0.033 0-0.049v0.003c0-0.056 0-0.122 0-0.187 0-1.889-0.134-3.746-0.394-5.562l0.024 0.208c0.205-1.296 0.322-2.791 0.322-4.313 0-6.83-2.354-13.11-6.295-18.074l0.046 0.060-8.144-10.12-0.369-0.369-41.57-52.059c185.059-79.318 326.186-283.106 326.186-478.027zM636.085 883.14c-1.522 0.594-2.823 1.257-4.047 2.032l0.095-0.056c-46.828 9.72-101.184 15.907-156.763 17.137l-1.022 0.018h-1.863c-57.794-1.66-112.983-7.876-166.66-18.321l6.402 1.038c-1.090-0.676-2.351-1.298-3.671-1.797l-0.152-0.050c0.126-0.213 0.217-0.462 0.256-0.728l0.001-0.011v-0.129c0.353-0.336 0.674-0.699 0.964-1.086l0.016-0.023c0.263-0.39 0.589-0.717 0.967-0.972l0.013-0.008 59.593-74.756h204.431l60.814 76.105 0.498 0.739c0 0.257 0.129 0.498 0.129 0.739v0.129zM594.322 748.068c-3.694-0.129-5.799-0.257-6.297-0.257h-219.032c-172.209-62.918-311.617-256.104-311.617-433.501 0-225.135 126.896-321.094 424.506-321.094s424.522 95.959 424.635 321.255c0 177.574-139.65 371.114-312.196 433.678zM581.68 448h38.551c16.625 0 30.102-13.477 30.102-30.102s-13.477-30.102-30.102-30.102h-108.311v-90.305h120.471c16.625 0 30.102-13.477 30.102-30.102s-13.477-30.102-30.102-30.102h-120.471v-90.289c0-16.625-13.477-30.102-30.102-30.102s-30.102 13.477-30.102 30.102v0 90.289h-120.471c-16.625 0-30.102 13.477-30.102 30.102s13.477 30.102 30.102 30.102h120.471v90.305h-132.55c-16.625 0-30.102 13.477-30.102 30.102s13.477 30.102 30.102 30.102h59.914l-99.187 99.187c-5.443 5.445-8.81 12.967-8.81 21.275 0 16.62 13.473 30.093 30.093 30.093 8.312 0 15.837-3.37 21.283-8.818l127.811-127.795c3.736-3.739 6.494-8.456 7.857-13.733l0.046-0.209h44.413c1.357 5.499 4.118 10.227 7.883 13.939l127.814 127.798c5.446 5.448 12.971 8.818 21.283 8.818 16.62 0 30.093-13.473 30.093-30.093 0-8.308-3.367-15.83-8.81-21.275v0z" />
<glyph unicode="&#xe90d;" glyph-name="camera" horiz-adv-x="1158" d="M1037.1 787.209c-6.667 0.533-14.434 0.836-22.273 0.836-3.010 0-6.010-0.045-8.999-0.134l0.438 0.010c-39.566-2.139-66.3 13.902-76.103 53.468-16.219 65.676-53.201 109.698-123.333 118.61h-455.19c-67.013-9.624-106.045-49.19-121.55-113.798-10.515-43.933-39.299-58.191-83.054-58.993-105.688-2.050-123.065-17.466-147.037-116.827v-641.615q9.624-83.499 93.123-93.123h972.225q83.499 9.624 93.123 93.123v641.615c-21.922 90.806-44.557 112.996-121.372 116.827zM578.256 111.909c-125.221 0.563-226.514 102.205-226.514 227.504 0 125.648 101.858 227.506 227.506 227.506s227.506-101.858 227.506-227.506c0-0.814-0.004-1.627-0.013-2.438l0.001 0.124c-1.659-124.722-103.152-225.189-228.111-225.189-0.132 0-0.264 0-0.396 0h0.021zM577.543 476.828c-79.14-0.964-142.923-65.344-142.923-144.621 0-79.877 64.753-144.631 144.631-144.631s144.631 64.753 144.631 144.631c0 0.717-0.005 1.433-0.016 2.148l0.001-0.108c-1.992 79.166-66.641 142.581-146.102 142.581-0.078 0-0.156 0-0.234 0h0.012z" />
<glyph unicode="&#xe90f;" glyph-name="check2" horiz-adv-x="832" d="M313.933 167.735c-0.019 0-0.050 0-0.064 0-11.928 0-22.739 4.851-30.544 12.682l-270.659 270.659c-7.829 7.832-12.666 18.657-12.666 30.61 0 23.934 19.393 43.326 43.326 43.326 11.975 0 22.826-4.851 30.674-12.715l240.040-240.040 442.903 443.033c7.864 8.019 18.814 12.988 30.919 12.988 23.91 0 43.294-19.393 43.294-43.294 0-12.103-4.969-23.064-12.979-30.919l-473.624-473.657c-7.808-7.829-18.622-12.684-30.547-12.684-0.019 0-0.054 0-0.070 0h0.007z" />
<glyph unicode="&#xe910;" glyph-name="close" horiz-adv-x="1023" d="M1011.69 1.935c6.796-6.63 11.011-15.878 11.011-26.111 0-0.23-0.002-0.46-0.006-0.689l0.001 0.034c0.001-0.108 0.002-0.236 0.002-0.364 0-10.559-4.198-20.137-11.016-27.157l0.009 0.009c-6.463-7.173-15.785-11.663-26.155-11.663-0.215 0-0.429 0.002-0.643 0.006h0.032c-10.816 0.036-20.65 4.214-28.005 11.029l0.027-0.024-445.599 446.718-445.412-446.718c-7.328-6.791-17.162-10.969-27.971-11.005h-0.007c-0.182-0.003-0.396-0.005-0.611-0.005-10.37 0-19.692 4.49-26.127 11.631l-0.028 0.031c-6.919 7.031-11.192 16.685-11.192 27.337 0 0.061 0 0.123 0 0.184v-0.010c-0.004 0.195-0.006 0.425-0.006 0.655 0 10.233 4.215 19.481 11.003 26.103l0.008 0.007 445.319 445.132-445.319 446.997c-6.796 6.63-11.011 15.878-11.011 26.111 0 0.23 0.002 0.46 0.006 0.689l-0.001-0.034c-0.001 0.108-0.002 0.236-0.002 0.364 0 10.559 4.198 20.137 11.016 27.157l-0.009-0.009c6.463 7.173 15.785 11.663 26.155 11.663 0.215 0 0.429-0.002 0.643-0.006h-0.032c11.056-0.123 20.98-4.863 27.956-12.379l0.023-0.025 445.599-445.319 445.319 445.319c6.998 7.54 16.922 12.28 27.956 12.403h0.022c0.182 0.003 0.396 0.005 0.611 0.005 10.37 0 19.692-4.49 26.127-11.631l0.028-0.031c6.809-7.010 11.006-16.589 11.006-27.147 0-0.128-0.001-0.256-0.002-0.384v0.020c0.004-0.195 0.006-0.425 0.006-0.655 0-10.233-4.215-19.481-11.003-26.103l-0.008-0.007-445.132-446.997z" />
<glyph unicode="&#xe911;" glyph-name="consumption" horiz-adv-x="1169" d="M1023.224 959.902h-877.050l-146.175-1023.803h1169.399zM109.554 9.266h-25.296l125.31 877.517h750.262l125.31-877.542zM803.993 630.796v-61.855c0.003-0.449 0.005-0.979 0.005-1.51 0-63.098-24.836-120.396-65.266-162.65l0.083 0.087c-38.687-41.019-93.403-66.556-154.084-66.556s-115.397 25.538-153.986 66.452l-0.097 0.104c-40.383 42.147-65.245 99.445-65.245 162.551 0 0.535 0.002 1.070 0.005 1.604v-0.082 135.010h-73.057v-135.010c0-167.784 130.911-303.761 292.35-303.761s292.35 135.977 292.35 303.761v135.010h-73.057v-73.155z" />
<glyph unicode="&#xe912;" glyph-name="distribution" horiz-adv-x="1051" d="M912.176 213.906h-3.307c-74.12 118.755-199.285 199.687-344.020 212.109l-1.672 0.116v121.593c97.518 18.405 170.291 102.925 170.291 204.442 0 114.801-93.065 207.866-207.866 207.866s-207.866-93.065-207.866-207.866c0-101.517 72.773-186.037 168.997-204.238l1.294-0.204v-121.593c-146.361-12.687-271.471-93.57-344.589-210.336l-1.103-1.889h-3.307c-76.683-0.022-138.839-62.192-138.839-138.878 0-76.7 62.178-138.878 138.878-138.878s138.878 62.178 138.878 138.878c0 47.722-24.070 89.822-60.732 114.821l-0.48 0.309c61.421 88.286 157.928 148.483 268.889 160.378l1.652 0.144v-142.185c-59.008-16.957-101.453-70.449-101.453-133.854 0-76.783 62.245-139.028 139.028-139.028s139.028 62.245 139.028 139.028c0 63.406-42.445 116.898-100.472 133.612l-0.981 0.242v142.185c113.093-11.928 210.098-72.125 271.239-159.309l0.806-1.212c-37.142-25.309-61.212-67.409-61.212-115.13 0-76.7 62.178-138.878 138.878-138.878s138.878 62.178 138.878 138.878c0 76.7-62.178 138.878-138.878 138.878-0.039 0-0.078 0-0.117 0h0.006z" />
<glyph unicode="&#xe913;" glyph-name="download" horiz-adv-x="1000" d="M536 225.429l173.714 174c6.394 6.539 15.306 10.593 25.164 10.593 3.192 0 6.285-0.425 9.225-1.222l-0.246 0.057c15.182-4.113 26.167-17.768 26.167-33.988 0-9.856-4.056-18.764-10.589-25.148l-233.721-233.864c-6.365-6.354-15.152-10.283-24.857-10.283s-18.492 3.929-24.858 10.283v0l-233.571 233.857c-6.374 6.356-10.317 15.146-10.317 24.857 0 19.387 15.716 35.103 35.103 35.103 9.676 0 18.437-3.915 24.787-10.247l-0.001 0.001 173.714-174v699.429c0 19.409 15.734 35.143 35.143 35.143s35.143-15.734 35.143-35.143v0-699.429zM922.143 198.857c2.374 19.882 19.136 35.149 39.464 35.149 0.239 0 0.477-0.002 0.715-0.006h-0.036c0.086 0.001 0.187 0.001 0.288 0.001 19.882 0 36.15-15.472 37.42-35.033l0.006-0.111v-262.857h-1000v262.857c2.108 19.833 18.748 35.148 38.964 35.148 0.214 0 0.427-0.002 0.639-0.005h-0.032c0.167 0.003 0.364 0.004 0.562 0.004 20.321 0 37.077-15.268 39.42-34.959l0.018-0.188v-175.714h842.571v175.714z" />
<glyph unicode="&#xe914;" glyph-name="edit" d="M307.2-64h-272.998c-18.889 0-34.202 15.313-34.202 34.202v0 271.36c0.034 9.436 3.862 17.972 10.036 24.167l682.188 684.236c6.222 6.202 14.807 10.036 24.288 10.036 0.101 0 0.202 0 0.304-0.001h-0.015c9.44-0.010 17.984-3.844 24.166-10.035v0l273.408-274.432c6.179-6.187 10-14.731 10-24.166s-3.821-17.979-10-24.167v0l-136.192-136.602c-6.183-6.192-14.726-10.025-24.164-10.035h-0.002c-9.44 0.010-17.984 3.844-24.166 10.035v0l-136.192 136.602c-5.645 6.081-9.108 14.256-9.108 23.239 0 18.889 15.313 34.202 34.202 34.202 8.983 0 17.158-3.463 23.261-9.128l-0.022 0.020 112.026-112.435 88.064 88.269-225.28 226.714-648.602-650.854v-222.618h224.256l398.746 399.77c6.081 5.645 14.256 9.108 23.239 9.108 18.889 0 34.202-15.313 34.202-34.202 0-8.983-3.463-17.158-9.128-23.261l0.020 0.022-409.6-409.6c-5.808-6.008-13.769-9.903-22.637-10.44l-0.096-0.005z" />
<glyph unicode="&#xe915;" glyph-name="eye-close" d="M494.207 192.040c-18.052 0-32.685 14.634-32.685 32.685v181.931c-51.16 1.852-99.733 8.071-146.801 18.319l5.431-0.992-46.271-174.252c-3.857-13.971-16.453-24.060-31.405-24.060-17.964 0-32.526 14.563-32.526 32.526 0 3.012 0.41 5.927 1.176 8.696l-0.054-0.229 46.074 173.858c-38.056 11.848-70.651 25.608-101.58 42.083l3.132-1.523-91.556-98.448c-5.521-8.148-14.735-13.431-25.182-13.431-0.562 0-1.12 0.016-1.674 0.046l0.077-0.004c-18.036 0.020-32.65 14.646-32.65 32.685 0 6.097 1.67 11.805 4.577 16.69l-0.083-0.151 90.375 97.266c-56.312 41.545-90.769 91.556-99.826 144.521-0.786 2.162-1.241 4.657-1.241 7.258 0 0.564 0.022 1.123 0.064 1.677l-0.005-0.074-1.576 15.161h5.316c5.548 10.437 16.32 17.442 28.736 17.524h0.012c0.057 0.001 0.124 0.001 0.191 0.001 11.89 0 22.278-6.426 27.883-15.994l0.083-0.153h1.379l1.772-6.104 1.182-6.301c16.539-113.215 204.377-201.62 427.656-201.62s411.511 88.406 427.459 201.227l1.969 12.798h1.772c5.273 10.904 16.243 18.295 28.942 18.312h0.002c18.011-0.054 32.59-14.667 32.59-32.685 0-2.371-0.253-4.683-0.732-6.91l0.039 0.215c-8.191-46.074-30.539-85.918-62.313-115.875l-0.104-0.097 94.904-128.376c3.3-4.942 5.265-11.019 5.265-17.555 0-11.962-6.585-22.387-16.327-27.846l-0.161-0.083c-4.65-2.672-10.224-4.248-16.166-4.248-11.872 0-22.274 6.291-28.054 15.722l-0.082 0.144-89.39 120.697c-34.627-23.398-74.411-43.387-116.706-57.988l-3.598-1.081 55.918-177.206c1.125-3.095 1.775-6.667 1.775-10.391 0-5.582-1.462-10.824-4.022-15.362l0.081 0.157c-4.949-8.387-13.033-14.476-22.601-16.69l-0.239-0.047c-2.629-0.626-5.648-0.985-8.751-0.985-0.039 0-0.077 0-0.116 0h0.006c-0.501-0.025-1.088-0.040-1.677-0.040-15.39 0-28.502 9.755-33.488 23.419l-0.079 0.248-55.525 177.206c-46.537-11.431-100.592-18.996-156.060-21.026l-1.457-0.043v-181.931c0.004-0.177 0.006-0.385 0.006-0.593 0-18.052-14.634-32.685-32.685-32.685-0.141 0-0.281 0.001-0.421 0.003h0.022z" />
<glyph unicode="&#xe916;" glyph-name="eye-open" d="M828.887 689.783c-101.773 55.69-226.095 91.575-316.887 91.575s-215.703-35.885-316.887-91.575c-125.892-68.829-195.113-154.718-195.113-241.783s69.221-172.955 195.113-241.783c101.576-55.69 226.095-91.575 316.887-91.575s215.703 35.885 316.887 91.575c125.696 68.829 195.113 154.718 195.113 241.783s-69.417 172.955-195.113 241.783zM794.57 268.967c-90.595-49.612-204.133-82.751-282.57-82.751s-191.976 33.336-282.57 82.751c-100.4 54.71-158.051 120.205-158.051 179.033s57.456 124.323 157.855 179.033c90.595 49.612 204.133 82.751 282.57 82.751s191.976-33.336 282.57-82.751c100.4-54.906 157.855-120.205 157.855-179.033s-57.456-124.323-157.855-179.033zM512 614.679c-92.055 0-166.679-74.625-166.679-166.679s74.625-166.679 166.679-166.679c92.055 0 166.679 74.625 166.679 166.679v0c0 92.055-74.625 166.679-166.679 166.679v0zM512 352.698c-52.38 0.334-94.713 42.873-94.713 95.3 0 52.634 42.668 95.302 95.302 95.302s95.3-42.667 95.302-95.3v0c0-52.634-42.668-95.302-95.302-95.302v0z" />
<glyph unicode="&#xe917;" glyph-name="fans" horiz-adv-x="1075" d="M538.010-63.846h-0.819c-0.030 0-0.066 0-0.102 0-10.943 0-20.998 3.802-28.916 10.157l0.091-0.070c-135.807 106.394-254.342 224.945-357.323 356.274l-3.398 4.498c-37.785 47.441-73.331 100.593-104.337 156.609l-2.996 5.9c-25.202 47.055-40.006 102.938-40.006 162.279 0 0.435 0.001 0.869 0.002 1.304v-0.067c-0.009 0.926-0.014 2.019-0.014 3.114 0 87.095 32.7 166.552 86.492 226.764l-0.291-0.331c52.35 59.549 128.563 97.039 213.54 97.416h0.067c66.771-0.072 128.059-23.491 176.153-62.531l-0.519 0.408c23.756-18.89 44.207-40.501 61.315-64.649l0.654-0.973c17.826 25.073 38.268 46.675 61.337 65.133l0.632 0.489c47.621 38.55 108.886 61.947 175.611 62.123h0.039c85.055-0.405 161.267-37.924 213.33-97.181l0.276-0.321c53.492-59.938 86.183-139.442 86.183-226.581 0-1.043-0.005-2.085-0.014-3.126l0.001 0.16c0.002-0.382 0.002-0.834 0.002-1.286 0-59.324-14.805-115.191-40.921-164.106l0.915 1.877c-33.703-61.889-69.189-115.055-108.839-164.752l1.729 2.243c-106.463-135.773-225.061-254.295-356.419-357.283l-4.506-3.404c-7.83-6.285-17.887-10.087-28.832-10.087-0.064 0-0.127 0-0.191 0h0.010z" />
<glyph unicode="&#xe918;" horiz-adv-x="1260" d="M0 837.888c0.853 67.636 55.881 122.136 123.639 122.136 0.858 0 1.715-0.009 2.569-0.026l-0.128 0.002h377.984l153.6-161.536h-657.664z" />
<glyph unicode="&#xe919;" horiz-adv-x="1260" d="M1134.336-64h-1008.256c-0.727-0.015-1.583-0.024-2.441-0.024-67.757 0-122.785 54.501-123.638 122.056l-0.001 0.081v740.352h1094.912c70.912 0 165.376-66.944 165.376-133.888v-606.464c-0.855-67.634-55.882-122.134-123.639-122.134-0.813 0-1.625 0.008-2.434 0.023l0.121-0.002z" />
<glyph unicode="&#xe91a;" glyph-name="find" horiz-adv-x="1156" d="M573.201-64.155c-280.511 2.924-506.782 231.002-506.782 511.927 0 282.744 229.209 511.953 511.953 511.953s511.953-229.209 511.953-511.953c0-0.029 0-0.058 0-0.088v0.005c-1.786-283.068-231.669-511.849-514.988-511.849-0.751 0-1.502 0.002-2.252 0.005h0.115zM573.201 880.18c-236.979-2.415-428.157-195.085-428.157-432.407 0-238.823 193.605-432.428 432.428-432.428 238.794 0 432.38 193.557 432.428 432.34v0.005c-1.461 239.172-195.684 432.493-435.060 432.493-0.576 0-1.152-0.001-1.728-0.003h0.089zM217.068-22.071c-0.221-0.001-0.483-0.001-0.744-0.001-14.212 0-28.225 0.847-41.994 2.492l1.663-0.162c-55.623 4.267-104.398 30.492-138.216 69.921l-0.227 0.271c-42.55 53.887-49.135 130.291-19.054 220.981 5.556 16.098 20.578 27.456 38.253 27.456 4.473 0 8.776-0.727 12.797-2.070l-0.285 0.083c16.158-5.328 27.614-20.288 27.614-37.924 0-4.43-0.723-8.691-2.057-12.672l0.082 0.281c-14.908-44.724-25.949-106.686 5.963-147.217 21.167-23.381 51.112-38.476 84.594-40.055l0.274-0.010c133.070-15.685 349.952 72.832 541.35 221.137 131.688 102.027 237.598 219.584 298.302 330.929 54.352 99.698 65.223 182.624 29.77 227.504-31.245 39.289-92.353 44.103-138.024 41.308-17.979-1.159-34.364-3.148-50.456-5.988l2.719 0.398c-2.223-0.441-4.778-0.693-7.393-0.693-21.956 0-39.755 17.799-39.755 39.755 0 19.631 14.228 35.938 32.935 39.172l0.237 0.034c16.084 3.1 35.528 5.533 55.297 6.765l1.369 0.068c92.881 5.28 164.393-18.946 206.275-71.745 56.93-71.901 48.979-183.556-22.285-314.312-65.844-120.818-179.316-247.226-319.561-355.776-192.377-149.236-406.121-239.927-559.442-239.927zM562.983 588.85c-57.298 0.554-103.534 47.131-103.534 104.507 0 57.72 46.792 104.512 104.512 104.512s104.509-46.789 104.512-104.507v0c-0.326-57.79-47.249-104.513-105.085-104.513-0.143 0-0.285 0-0.427 0.001h0.022zM562.983 718.209c-0.042 0-0.091 0-0.141 0-13.769 0-24.947-11.096-25.079-24.835v-0.012c0-27.487 50.346-27.487 50.346 0-0.097 13.743-11.26 24.847-25.017 24.847-0.038 0-0.077 0-0.115 0h0.006zM385.359 242.703c-72.925 0.755-131.75 60.047-131.75 133.079 0 73.501 59.585 133.086 133.086 133.086 73.499 0 133.082-59.581 133.086-133.079v0c-0.475-73.603-60.252-133.087-133.922-133.087-0.176 0-0.351 0-0.527 0.001h0.027zM385.359 429.365c-29.388-0.264-53.11-24.149-53.11-53.574 0-29.589 23.987-53.576 53.576-53.576s53.575 23.986 53.576 53.574v0c-0.211 29.634-24.283 53.576-53.947 53.576-0.033 0-0.066 0-0.1 0h0.005zM847.991 529.218c0.001-0.102 0.001-0.222 0.001-0.342 0-33.723-27.338-61.061-61.061-61.061s-61.061 27.338-61.061 61.061c0 33.723 27.338 61.061 61.061 61.061 0.022 0 0.043 0 0.065 0h-0.003c0.083 0 0.181 0.001 0.28 0.001 33.534 0 60.719-27.185 60.719-60.719 0 0 0 0 0-0.001v0z" />
<glyph unicode="&#xe91b;" glyph-name="gift" horiz-adv-x="1007" d="M732.95 960c141.782-89.388 149.411-136.888 45.342-271.762 21.591-15.402 46.781-8.349 69.812-7.629 168.987 4.894 159.919 4.894 158.336-192.018 0-31.379-14.394-43.182-44.046-43.182-128.54 0-257.080 1.439-385.619 0-36.993 0-48.22 14.394-46.781 48.94 1.439 43.182 0 86.365 0 128.54 0 20.296 4.174 48.22-27.925 46.061s-23.031-30.084-25.19-49.66c-0.166-1.361-0.261-2.936-0.261-4.534s0.095-3.173 0.28-4.721l-0.018 0.187c-8.349-164.813-8.349-164.813-170.427-164.813-79.6 0-159.199 2.735-238.943-1.439-53.834-2.735-71.971 18.137-65.637 68.516 1.001 8.273 1.571 17.852 1.571 27.565s-0.571 19.292-1.681 28.706l0.11-1.141c-9.788 82.478 22.311 121.487 108.244 112.418 15.327-0.842 33.265-1.321 51.315-1.321s35.988 0.48 53.802 1.427l-2.487-0.105c-95.865 141.063-84.638 187.124 60.743 278.671h36.993c78.16-36.417 148.692-81.759 195.473-173.306 41.023 99.176 115.297 136.888 190.723 173.306zM447.37 705.799c-16.841 73.266-53.114 126.381-116.305 157.184-36.273 17.417-73.986 11.227-93.562-27.925-18.137-36.273 0-64.918 32.099-83.774 53.114-30.084 108.244-51.675 178.056-45.342zM550.001 698.17c69.221 5.542 131.863 29.802 183.993 67.655l-1.044-0.722c25.19 18.137 50.236 43.182 30.803 75.425-21.591 38.432-60.024 38.432-95.001 20.296-62.183-32.819-95.001-87.373-118.752-162.798zM473.855-43.704c-0.395-11.296-9.647-20.304-21.003-20.304-0.207 0-0.413 0.003-0.618 0.009l0.030-0.001h-398.142c-0.175-0.005-0.381-0.008-0.588-0.008-11.356 0-20.609 9.008-21.002 20.268l-0.001 0.036v414.408c0.395 11.296 9.647 20.304 21.003 20.304 0.207 0 0.413-0.003 0.618-0.009l-0.030 0.001h398.142c0.175 0.005 0.381 0.008 0.588 0.008 11.356 0 20.609-9.008 21.002-20.268l0.001-0.036zM958.651-43.704c-0.395-11.296-9.647-20.304-21.003-20.304-0.207 0-0.413 0.003-0.618 0.009l0.030-0.001h-398.286c-0.175-0.005-0.381-0.008-0.588-0.008-11.356 0-20.609 9.008-21.002 20.268l-0.001 0.036v414.408c0.395 11.296 9.647 20.304 21.003 20.304 0.207 0 0.413-0.003 0.618-0.009l-0.030 0.001h398.142c0.218 0.008 0.474 0.013 0.732 0.013 11.358 0 20.611-9.010 21.003-20.273l0.001-0.036z" />
<glyph unicode="&#xe91c;" glyph-name="increment" horiz-adv-x="974" d="M52.224 113.995c-28.872-0.137-52.224-23.573-52.224-52.464 0-0.064 0-0.127 0-0.191v0.010-72.644c0-28.843 23.381-52.224 52.224-52.224s52.224 23.381 52.224 52.224v0 72.644c0 0.072 0.001 0.157 0.001 0.241 0 28.891-23.353 52.328-52.212 52.464h-0.013zM268.649 211.215c-28.872-0.137-52.225-23.573-52.225-52.464 0-0.085 0-0.17 0.001-0.255v0.013-169.803c0-28.843 23.381-52.224 52.224-52.224s52.224 23.381 52.224 52.224v169.803c0 0.072 0.001 0.157 0.001 0.241 0 28.891-23.353 52.328-52.212 52.464h-0.013zM488.568 314.278c-28.872-0.137-52.225-23.573-52.225-52.464 0-0.085 0-0.17 0.001-0.255v0.013-272.866c0-28.843 23.381-52.224 52.224-52.224s52.224 23.381 52.224 52.224v0 272.866c0 0.072 0.001 0.157 0.001 0.241 0 28.891-23.353 52.328-52.212 52.464h-0.013zM702.645 462.999c-28.82-0.205-52.104-23.615-52.104-52.464 0-0.085 0-0.17 0.001-0.255v0.013-421.647c0-28.843 23.381-52.224 52.224-52.224s52.224 23.381 52.224 52.224v0 421.647c0 0.072 0.001 0.157 0.001 0.241 0 28.891-23.353 52.328-52.212 52.464h-0.013zM921.961 679.846c-28.872-0.137-52.225-23.573-52.225-52.464 0-0.085 0-0.17 0.001-0.255v0.013-638.494c0-28.843 23.381-52.224 52.224-52.224s52.224 23.381 52.224 52.224v0 638.494c0 0.072 0.001 0.157 0.001 0.241 0 28.891-23.353 52.328-52.212 52.464h-0.013zM841.848 764.717l57.946-26.263c1.095-0.685 2.399-1.388 3.747-2.013l0.229-0.095c4.133-1.92 8.972-3.040 14.073-3.040 13.824 0 25.726 8.227 31.077 20.053l0.087 0.215c1.914 4.169 3.030 9.045 3.030 14.181 0 5.584-1.319 10.861-3.663 15.534l0.091-0.2-0.602 1.687-53.248 153.781c-4.797 12.563-16.749 21.325-30.747 21.325-4.1 0-8.025-0.752-11.644-2.125l0.226 0.075-149.926-62.464c-2.309-0.892-4.293-1.925-6.143-3.146l0.119 0.074c-11.506-5.826-19.255-17.562-19.255-31.108 0-13.945 8.213-25.972 20.065-31.508l0.214-0.090c1.096-0.519 2.452-1.051 3.847-1.497l0.249-0.069 55.296-25.058c-59.272-104.026-245.278-354.123-698.729-442.308-2.497-0.313-4.721-0.778-6.877-1.402l0.311 0.077h-1.024c-17.911-5.719-30.654-22.214-30.654-41.686 0-23.947 19.275-43.392 43.157-43.668h0.026c0.046 0 0.101 0 0.156 0 5.899 0 11.518 1.196 16.628 3.358l-0.28-0.105 0.602-0.361s341.173 73.788 512 210.824c137.758 110.893 209.739 189.199 249.615 276.781z" />
<glyph unicode="&#xe91d;" d="M512.366-64.146c-282.972 0-512.366 229.394-512.366 512.366s229.394 512.366 512.366 512.366c282.972 0 512.366-229.394 512.366-512.366v0c-0.665-282.704-229.662-511.701-512.302-512.366h-0.064zM528.323 281.481l115.209-60.752c4.747-2.109 10.284-3.337 16.109-3.337 1.080 0 2.15 0.042 3.209 0.125l-0.14-0.009c14.932 3.469 25.889 16.66 25.889 32.409 0 2.154-0.205 4.26-0.596 6.3l0.033-0.208-22.398 127.945c-0.332 1.737-0.522 3.735-0.522 5.778 0 9.261 3.909 17.609 10.167 23.484l0.017 0.016 92.811 92.811c5.5 4.706 9.12 11.472 9.657 19.089l0.005 0.088c0.397 1.808 0.624 3.884 0.624 6.013 0 15.101-11.432 27.531-26.113 29.109l-0.129 0.011-127.945 19.177c-9.662 0-19.177 9.662-25.618 15.957l-57.531 118.43c-3.674 6.827-9.13 12.283-15.752 15.856l-0.204 0.101c-3.787 1.722-8.213 2.725-12.873 2.725-12.971 0-24.127-7.775-29.061-18.918l-0.080-0.203-57.531-118.869c-3.807-9.473-12.918-16.040-23.562-16.040-0.724 0-1.441 0.030-2.149 0.090l0.093-0.006-127.945-19.177c-7.705-0.541-14.471-4.161-19.146-9.624l-0.032-0.038c-5.93-5.639-9.618-13.588-9.618-22.398s3.688-16.758 9.605-22.385l0.013-0.012 92.811-92.811c6.040-7.46 9.697-17.066 9.697-27.526 0-0.616-0.013-1.229-0.038-1.839l0.003 0.087-22.398-127.945c-0.007-0.29-0.012-0.632-0.012-0.975 0-6.236 1.408-12.144 3.923-17.422l-0.105 0.245c5.561-10.263 16.25-17.116 28.54-17.116 5.988 0 11.596 1.627 16.407 4.463l-0.151-0.082 115.209 60.752c1.571 0.081 3.412 0.127 5.263 0.127 9.519 0 18.753-1.221 27.554-3.516l-0.757 0.168z" />
<glyph unicode="&#xe91e;" d="M495.97 281.627l-115.356-60.898c-4.481-2.497-9.83-3.966-15.521-3.966-12.183 0-22.793 6.734-28.311 16.683l-0.084 0.166c-2.109 4.747-3.337 10.284-3.337 16.109 0 1.080 0.042 2.15 0.125 3.209l-0.009-0.14 22.398 127.945c0.332 1.737 0.522 3.735 0.522 5.778 0 9.261-3.909 17.609-10.167 23.484l-0.017 0.016-93.397 92.372c-5.93 5.639-9.618 13.588-9.618 22.398s3.688 16.758 9.605 22.385l0.013 0.012c4.706 5.5 11.472 9.12 19.089 9.657l0.088 0.005 127.945 19.177c9.662 0 19.177 9.662 25.618 15.957l57.531 118.43c5.118 11.089 16.142 18.646 28.93 18.646 4.629 0 9.026-0.99 12.992-2.77l-0.201 0.081c6.821-3.681 12.276-9.135 15.855-15.752l0.101-0.204 57.531-118.43c3.807-9.473 12.918-16.040 23.562-16.040 0.724 0 1.441 0.030 2.149 0.090l-0.093-0.006 127.945-19.177c14.841-2.864 25.898-15.751 25.898-31.22 0-1.483-0.102-2.943-0.298-4.372l0.019 0.166c-0.541-7.705-4.161-14.471-9.624-19.146l-0.038-0.032-92.811-92.811c-6.037-7.548-9.687-17.233-9.687-27.771 0-0.53 0.009-1.058 0.028-1.584l-0.002 0.076 22.69-127.36c0.217-1.466 0.34-3.158 0.34-4.879 0-16.14-10.883-29.738-25.712-33.856l-0.247-0.059c-0.911-0.073-1.972-0.114-3.044-0.114-5.833 0-11.379 1.227-16.394 3.437l0.261-0.102-115.209 61.191c-5.557 3.377-12.275 5.375-19.46 5.375-4.516 0-8.847-0.789-12.863-2.238l0.264 0.083z" />
<glyph unicode="&#xe91f;" d="M751.86 548.058l-127.945 19.177c-0.616-0.053-1.333-0.084-2.056-0.084-10.644 0-19.755 6.567-23.501 15.87l-0.061 0.17-57.531 118.43c-3.681 6.821-9.135 12.276-15.752 15.855l-0.204 0.101c-3.765 1.699-8.162 2.689-12.791 2.689-12.789 0-23.812-7.557-28.849-18.449l-0.082-0.197-57.531-118.43c-6.441-6.441-15.957-15.957-25.618-15.957l-127.945-19.177c-7.705-0.541-14.471-4.161-19.146-9.624l-0.032-0.038c-5.414-5.342-8.909-12.617-9.365-20.704l-0.004-0.083c-0.027-0.485-0.042-1.052-0.042-1.623 0-8.767 3.601-16.693 9.406-22.38l92.816-92.816c3.024-3.153 5.532-6.832 7.367-10.881l0.099-0.245c1.839-3.399 2.92-7.44 2.92-11.734 0-2.123-0.264-4.184-0.762-6.152l0.037 0.173-22.398-127.799c-0.074-0.919-0.116-1.989-0.116-3.069 0-5.824 1.228-11.362 3.439-16.368l-0.102 0.259c5.561-10.263 16.25-17.116 28.54-17.116 5.988 0 11.596 1.627 16.407 4.463l-0.151-0.082 114.916 60.313c3.752 1.365 8.083 2.155 12.599 2.155 7.185 0 13.903-1.999 19.629-5.47l-0.169 0.095 115.209-60.752c4.755-2.108 10.301-3.335 16.134-3.335 1.071 0 2.133 0.041 3.183 0.123l-0.139-0.009c14.953 4.339 25.708 17.887 25.765 33.956v0.007c0.068 0.702 0.106 1.518 0.106 2.342s-0.039 1.64-0.114 2.445l0.008-0.103-22.544 128.091s0 1.464 0 2.196c0.112 10.108 3.623 19.375 9.439 26.735l-0.070-0.092 92.811 92.811c5.5 4.706 9.12 11.472 9.657 19.089l0.005 0.088c0.162 1.078 0.255 2.321 0.255 3.587s-0.093 2.509-0.272 3.724l0.017-0.138c-1.778 13.859-11.988 24.909-25.252 27.919l-0.22 0.042z" />
<glyph unicode="&#xe920;" glyph-name="left" horiz-adv-x="578" d="M510.419-64.173l-510.419 513.388 507.952 510.978 67.85-68.255-440.102-442.723 442.569-445.133z" />
<glyph unicode="&#xe921;" glyph-name="lock" horiz-adv-x="1081" d="M858.377 638.881h-83.8c0 134.623-102.758 237.505-233.985 237.505s-234.047-103.067-234.047-237.505h-83.8c0 161.548 142.589 321.119 317.785 321.119s317.846-159.757 317.846-321.119v0zM1074.515 560.145h-1068.339c-4.243-25.445-6.668-54.763-6.668-84.648 0-298.561 242.031-540.592 540.592-540.592s540.592 242.031 540.592 540.592c0 0.363 0 0.726-0.001 1.089v-0.056c0.002 0.544 0.003 1.188 0.003 1.832 0 28.864-2.246 57.203-6.574 84.852l0.396-3.070zM577.027 296.456v-83.059c0-20.139-16.326-36.466-36.466-36.466s-36.466 16.326-36.466 36.466v0 83.059c-21.989 12.851-36.527 36.344-36.527 63.232 0 40.313 32.68 72.993 72.993 72.993s72.993-32.68 72.993-72.993c0-26.888-14.538-50.38-36.182-63.045l-0.345-0.187z" />
<glyph unicode="&#xe922;" glyph-name="mall" horiz-adv-x="993" d="M563.813 313.312h-344.063c-18.286 0-33.11 14.824-33.11 33.11s14.824 33.11 33.11 33.11h344.063c18.286 0 33.11-14.824 33.11-33.11s-14.824-33.11-33.11-33.11v0zM448.169 153.889h-228.419c-18.243 0-33.032 14.789-33.032 33.032s14.789 33.032 33.032 33.032v0h228.419c18.243 0 33.032-14.789 33.032-33.032s-14.789-33.032-33.032-33.032v0zM779.236-63.845h-565.301c-67.098 1.549-122.492 49.78-135.053 113.401l-0.147 0.894-77.060 442.291c-1.22 6.098-1.918 13.109-1.918 20.283 0 25.904 9.101 49.681 24.281 68.31l-0.155-0.197c19.726 22.944 48.785 37.384 81.217 37.384 0.512 0 1.024-0.004 1.534-0.011l-0.077 0.001h780.058c0.412 0.006 0.897 0.009 1.384 0.009 32.445 0 61.517-14.44 81.141-37.243l0.118-0.14c15.053-18.448 24.172-42.253 24.172-68.188 0-7.147-0.693-14.132-2.014-20.892l0.111 0.684-77.075-442.291c-12.703-64.523-68.109-112.759-135.053-114.292l-0.163-0.003zM106.556 552.292c-0.524 0.024-1.139 0.038-1.757 0.038-12.114 0-22.997-5.271-30.48-13.645l-0.035-0.040c-5.5-6.987-8.822-15.915-8.822-25.618 0-3.121 0.344-6.162 0.995-9.087l-0.052 0.277 77.060-442.291c7.616-33.058 35.919-57.646 70.272-59.542l0.197-0.009h565.301c34.554 1.903 62.862 26.491 70.384 59.036l0.1 0.515 77.044 442.291c0.603 2.65 0.949 5.693 0.949 8.817 0 9.706-3.336 18.633-8.924 25.697l0.066-0.087c-7.513 8.413-18.391 13.684-30.5 13.684-0.612 0-1.221-0.013-1.827-0.040l0.086 0.003h-780.058zM808.096 595.56c-18.604 1.884-33.002 17.465-33.002 36.408 0 0.995 0.040 1.981 0.118 2.956l-0.008-0.129c0 136.006-124.933 246.579-278.619 246.579s-278.619-110.573-278.619-246.579c0.326-1.751 0.512-3.765 0.512-5.823 0-18.44-14.949-33.389-33.389-33.389s-33.389 14.949-33.389 33.389c0 2.058 0.186 4.073 0.543 6.028l-0.031-0.204c0 179.274 154.507 325.050 344.373 325.050s344.388-145.776 344.388-325.050c0.071-0.855 0.112-1.851 0.112-2.857 0-18.933-14.394-34.503-32.835-36.366l-0.154-0.013zM656.877 163.039c-0.211-29.354-24.056-53.069-53.44-53.069-29.515 0-53.441 23.926-53.441 53.441s23.926 53.441 53.441 53.441c0.010 0 0.021 0 0.031 0h-0.002c29.552-0.053 53.488-24.021 53.488-53.58 0-0.082 0-0.164-0.001-0.245v0.013z" />
<glyph unicode="&#xe923;" horiz-adv-x="1164" d="M368.064 464.028c-17.355 0.079-32.006 11.563-36.85 27.338l-0.072 0.274-42.318 143.248-108.97 41.049c-14.978 5.503-25.471 19.644-25.471 36.235s10.492 30.732 25.204 36.149l0.267 0.086 109.076 39.991 42.318 144.094c4.854 16.035 19.5 27.508 36.826 27.508 0.071 0 0.143 0 0.214-0.001h-0.011c17.408-0.196 32.057-11.786 36.851-27.654l0.072-0.276 41.26-143.883 109.922-39.779c14.901-5.543 25.325-19.645 25.325-36.182s-10.423-30.639-25.059-36.095l-0.266-0.087-109.922-41.26-41.26-142.93c-4.902-16.099-19.54-27.644-36.902-27.824h-0.021zM333.892 700.271c11.313-4.286 19.928-13.422 23.415-24.801l0.072-0.273 10.58-35.124 10.58 34.807c3.481 11.836 12.16 21.14 23.328 25.408l0.265 0.089 30.258 11.214-29.94 10.58c-12.064 4.198-21.25 13.872-24.69 25.965l-0.066 0.272-10.051 35.018-10.58-35.336c-3.605-11.744-12.293-20.953-23.431-25.196l-0.267-0.089-29.729-10.58z" />
<glyph unicode="&#xe924;" horiz-adv-x="1164" d="M566.749-64c-45.81 0-99.131 33.643-164.195 77.549l-21.159 13.859c-22.36 15.173-41.714 32.342-58.626 51.699l-0.302 0.353c-56.574 17.006-105.614 43.839-147.619 78.83l0.668-0.541c-80.934 66.228-139.651 159.223-173.929 276.445-0.978 3.239-1.541 6.961-1.541 10.814 0 17.446 11.537 32.197 27.398 37.039l0.274 0.072c3.16 0.895 6.797 1.432 10.551 1.481h0.028c17.405-0.021 32.103-11.584 36.853-27.446l0.070-0.273c39.039-133.303 108.018-209.159 166.946-251.689-24.333 49.195-45.704 102.834-64.959 151.077l-11.955 30.258c-1.748 4.253-2.763 9.191-2.763 14.365 0 16.046 9.76 29.813 23.668 35.686l0.254 0.095c4.176 1.742 9.028 2.754 14.116 2.754 0.17 0 0.34-0.001 0.509-0.003h-0.026c0.054 0 0.117 0 0.181 0 16.046 0 29.787-9.868 35.486-23.866l0.092-0.256 12.167-30.469c51.311-128.542 95.216-239.628 175.198-291.997l21.159-14.388c33.326-22.535 95.216-64.324 121.136-64.324 6.983 0 35.23 7.935 145.787 81.146 128.013 84.637 208.101 307.338 231.376 492.692-82.352 31.401-152.031 79.858-207.468 141.397l-0.421 0.475c-52.898 58.928-88.34 124.734-99.66 185.566-0.417 2.129-0.655 4.577-0.655 7.081 0 18.676 13.258 34.255 30.876 37.84l0.248 0.042c2.196 0.404 4.722 0.635 7.303 0.635 0.036 0 0.072 0 0.108 0h-0.006c18.789-0.080 34.388-13.64 37.628-31.505l0.035-0.234c18.409-100.718 130.658-232.751 284.803-278.984 1.411-0.435 2.641-1.048 3.744-1.826l-0.041 0.028c2.508-0.997 4.669-2.17 6.665-3.561l-0.106 0.070c2.094-1.425 3.926-2.921 5.618-4.56l-0.011 0.011c1.647-1.675 3.144-3.508 4.463-5.471l0.086-0.136c1.305-1.861 2.476-3.984 3.409-6.231l0.082-0.222c0.868-1.964 1.599-4.266 2.079-6.659l0.036-0.218c0.538-2.217 0.847-4.762 0.847-7.38 0-0.046 0-0.093 0-0.139v0.007c0.099-0.62 0.156-1.335 0.156-2.063s-0.057-1.443-0.166-2.141l0.010 0.077c-8.358-82.59-24.026-157.996-46.633-230.337l2.199 8.165c-23.746-79.372-54.332-148.362-92.314-212.453l2.387 4.352c9.73-20.326 25.021-36.673 43.907-47.437l0.527-0.277c-12.484 90.244 31.739 182.498 82.944 288.506l9.945 20.101c79.559 165.782 67.075 265.971 36.182 443.18-0.356 1.969-0.56 4.236-0.56 6.551 0 19.096 13.861 34.954 32.070 38.063l0.228 0.032c1.724 0.407 3.817 0.743 5.951 0.939l0.185 0.014c0.016 0 0.035 0 0.054 0 18.855 0 34.536-13.587 37.786-31.505l0.035-0.234c32.797-187.788 47.079-303.211-42.318-489.942l-9.627-19.89c-58.505-121.771-104.738-217.622-57.976-297.393 3.31-5.577 5.266-12.293 5.266-19.467 0-21.281-17.215-38.542-38.479-38.615h-4.133c-3.914 0-95.216 10.58-149.596 78.818-24.208-30.314-52.103-56.293-83.339-77.763l-1.298-0.843c-90.138-60.41-151.077-95.428-189.904-95.428zM565.586 106.437c-40.339 0.079-78.208 10.579-111.082 28.949l1.16-0.595c-11.212 6.891-18.575 19.090-18.575 33.008 0 21.311 17.263 38.59 38.568 38.616h0.002c7.273-0.014 14.066-2.058 19.845-5.596l-0.167 0.095c20.196-11.073 44.241-17.609 69.807-17.668h0.018c0.051 0 0.111 0 0.171 0 26.053 0 50.348 7.528 70.829 20.527l-0.54-0.32c5.745 3.61 12.731 5.752 20.216 5.752 13.744 0 25.802-7.22 32.588-18.074l0.094-0.161c3.502-5.709 5.576-12.621 5.576-20.017 0-13.81-7.23-25.932-18.111-32.786l-0.16-0.094c-31.152-19.848-69.12-31.633-109.84-31.633-0.141 0-0.281 0-0.422 0h0.022zM754.961 441.599c-0.857-0.015-1.867-0.023-2.88-0.023-44.636 0-85.474 16.26-116.914 43.181l0.244-0.204c-8.897 7.136-14.545 18.006-14.545 30.195 0 21.327 17.289 38.616 38.616 38.616 10.371 0 19.787-4.089 26.725-10.742l-0.014 0.013 0.846-0.741c17.875-14.278 40.804-22.911 65.749-22.911 1.247 0 2.49 0.022 3.727 0.064l-0.18-0.005c1.251-0.057 2.718-0.089 4.192-0.089 26.436 0 50.435 10.437 68.099 27.416l-0.032-0.031c7.053 7.477 17.027 12.133 28.089 12.133 21.308 0 38.582-17.274 38.582-38.582 0-10.246-3.994-19.56-10.51-26.468l0.018 0.019c-31.988-32.065-76.22-51.903-125.086-51.903-1.662 0-3.318 0.023-4.969 0.069l0.243-0.005z" />
<glyph unicode="&#xe925;" horiz-adv-x="883" d="M677.58-63.803c-0.148-0.001-0.323-0.001-0.498-0.001-52.792 0-95.66 42.49-96.27 95.138l-0.001 0.058 27.958 433.147c-79.669 29.312-135.594 104.27-136.244 192.376v256.62h60.641v-256.541c0.434-64.618 43.038-119.17 101.648-137.542l1.028-0.278 35.341-10.632-1.772-37.014c0-4.036 0-6.596 0-9.352l-27.958-433.147c1.943-18.293 17.291-32.419 35.938-32.419 19.722 0 35.753 15.803 36.122 35.437l0.001 0.034-27.662 427.044q0 5.021 0 9.844l-1.378 39.377 35.144 10.533c59.656 18.622 102.275 73.191 102.675 137.772v256.884h60.641v-256.541c-0.707-88.353-56.73-163.441-135.108-192.386l-1.432-0.463v-2.756l27.761-426.749c0.007-0.442 0.011-0.965 0.011-1.488 0-53.038-42.582-96.13-95.423-96.954l-0.077-0.001h-1.083zM645.587 642.227h-61.33v271.308h60.542zM759.78 642.227h-61.33v271.308h60.641z" />
<glyph unicode="&#xe926;" horiz-adv-x="883" d="M211.061-63.803c-0.147-0.001-0.322-0.001-0.496-0.001-52.807 0-95.674 42.558-96.174 95.246v0.047l27.761 429.407c-84.168 35.833-142.151 133.882-142.151 241.972 0 141.757 96.080 257.132 214.113 257.132s214.113-115.375 214.113-257.132c0-111.535-60.345-210.273-147.664-244.433l26.973-423.795c0.008-0.472 0.013-1.028 0.013-1.586 0-52.984-42.539-96.032-95.327-96.856l-0.077-0.001h-1.083zM214.113 899.655c-84.661 0-153.472-88.598-153.472-196.885 0-87.023 45.776-164.793 111.437-188.911l31.797-11.813-0.984-41.051-27.958-431.572c1.936-18.3 17.287-32.435 35.939-32.435 19.693 0 35.706 15.756 36.12 35.349l0.001 0.039-28.056 447.225v22.051l32.978 10.829c68.221 22.445 115.867 100.707 115.867 190.388 0 108.287-68.91 196.885-153.472 196.885z" />
<glyph unicode="&#xe927;" horiz-adv-x="1108" d="M637.725 98.765c-0.706-0.002-1.541-0.004-2.377-0.004-48.768 0-96.475 4.546-142.719 13.236l4.767-0.745c-59.68 11.030-112.891 28.983-162.366 53.364l3.622-1.614c-84.663 41.167-125.301 87.944-126.995 89.743-5.624 6.446-9.053 14.935-9.053 24.224 0 10.216 4.148 19.464 10.852 26.15l0.001 0.001 430.618 431.147c-100.336 93.988-235.64 151.714-384.426 151.714-33.403 0-66.127-2.91-97.932-8.489l3.377 0.491h-2.434c-41.382-7.325-73.531-39.546-80.662-80.367l-0.086-0.592c-5.034-28.266-7.912-60.806-7.912-94.018 0-110.893 32.085-214.293 87.477-301.422l-1.358 2.286c3.606-5.622 5.748-12.482 5.748-19.843 0-20.504-16.622-37.126-37.126-37.126-13.143 0-24.692 6.83-31.289 17.134l-0.089 0.149c-61.046 95.955-97.291 212.873-97.291 338.258 0 37.523 3.246 74.288 9.473 110.029l-0.549-3.806c12.513 72.541 68.746 129.024 140.128 141.762l1.048 0.155h2.434c32.264 5.795 69.401 9.109 107.312 9.109 175.707 0 334.79-71.177 449.988-186.272l-0.005 0.005c9.939-9.939 16.086-23.67 16.086-38.837 0-0.038 0-0.076 0-0.114v0.006c0.002-0.154 0.002-0.337 0.002-0.52 0-15.071-6.153-28.705-16.084-38.526l-416.971-417.288c23.789-18.863 50.682-35.728 79.352-49.48l2.56-1.106c40.286-19.45 87.066-34.808 136.092-43.725l3.391-0.512c37.562-6.751 80.799-10.612 124.938-10.612 27.602 0 54.852 1.51 81.671 4.451l-3.312-0.295c1.063 0.108 2.297 0.169 3.545 0.169 20.55 0 37.209-16.659 37.209-37.209 0-19.302-14.697-35.171-33.51-37.028l-0.154-0.012c-29.632-2.752-58.735-4.233-87.097-4.233v0z" />
<glyph unicode="&#xe928;" horiz-adv-x="1108" d="M840.387-64c-0.030 0-0.065 0-0.1 0-6.487 0-12.58 1.687-17.864 4.646l0.185-0.095c-11.506 6.488-19.149 18.63-19.149 32.557 0 2.788 0.306 5.504 0.887 8.117l-0.046-0.248c16.762 70.228 26.373 150.86 26.373 233.737 0 49.238-3.392 97.684-9.956 145.116l0.622-5.49c-11.082 81.734-32.189 155.745-62.324 224.918l2.107-5.429c-1.958 4.363-3.099 9.456-3.099 14.816 0 20.415 16.55 36.964 36.964 36.964 15.055 0 28.008-9 33.772-21.914l0.094-0.235c30.48-69.388 53.473-149.956 65.072-234.161l0.541-4.801c6.462-44.688 10.152-96.289 10.152-148.751 0-47.278-2.997-93.856-8.81-139.555l0.563 5.426 148.584 148.16c6.69 6.69 15.932 10.827 26.14 10.827 20.416 0 36.967-16.551 36.967-36.967 0-10.208-4.138-19.45-10.827-26.14l-230.707-230.707c-6.707-6.545-15.886-10.583-26.009-10.583-0.046 0-0.092 0-0.138 0h0.007zM220.124 679.342c0.024-36.804 29.865-66.629 66.672-66.629 36.822 0 66.672 29.85 66.672 66.672s-29.85 66.672-66.672 66.672c-12.274 0-23.773-3.317-33.651-9.103l0.315 0.17c-20.069-11.742-33.336-33.192-33.336-57.74 0-0.015 0-0.030 0-0.045v0.002z" />
<glyph unicode="&#xe929;" horiz-adv-x="1170" d="M775.539 418.068h-129.182v138.409c0.020 0.42 0.032 0.913 0.032 1.408 0 16.367-12.752 29.755-28.863 30.771l-0.089 0.004h-54.801c-16.202-1.018-28.957-14.407-28.957-30.775 0-0.535 0.014-1.066 0.040-1.594l-0.003 0.074v-138.409h-138.971c-17.631-0.062-31.93-14.242-32.183-31.821v-47.736c0 0 0 0 0 0 0-17.797 14.395-32.231 32.177-32.295h139.428v-130.869c-0.028-0.494-0.045-1.073-0.045-1.655 0-16.19 12.524-29.455 28.412-30.635l0.102-0.006h54.351c16.193 0.956 28.963 14.322 28.963 30.67 0 0.572-0.016 1.14-0.046 1.704l0.003-0.079v130.419h129.632c0 0 0 0 0 0 17.797 0 32.231 14.395 32.295 32.177v48.28c0 0.033 0 0.073 0 0.113 0 17.836-14.459 32.295-32.295 32.295 0 0 0 0 0 0v0z" />
<glyph unicode="&#xe92a;" horiz-adv-x="1170" d="M957.946 875.717h-77.982l-9.677-38.484c-8.311-31.941-36.892-55.14-70.893-55.14-0.158 0-0.316 0.001-0.474 0.002h-403.612c-0.033 0-0.073 0-0.113 0-34 0-62.581 23.198-70.78 54.63l-0.113 0.509-9.227 38.484h-102.625c-117.375-0.192-212.452-95.388-212.452-212.789 0 0 0 0 0 0v0-514.251c0.064-117.353 95.116-212.485 212.433-212.677h745.513c117.287 0.256 212.276 95.363 212.339 212.671v514.257c0 0 0 0 0 0 0 117.402-95.077 212.597-212.433 212.789h-0.018zM1069.011 148.677c0.001-0.134 0.001-0.292 0.001-0.45 0-61.277-49.675-110.952-110.952-110.952-0.040 0-0.080 0-0.119 0h-745.488c-0.067 0-0.147 0-0.226 0-61.277 0-110.952 49.675-110.952 110.952 0 0.158 0 0.317 0.001 0.475v-0.024 514.251c0 0 0 0 0 0 0 61.198 49.547 110.824 110.715 110.952h28.031c29.848-56.087 87.93-93.623 154.78-93.623 0.020 0 0.041 0 0.061 0h404.083c0.017 0 0.037 0 0.058 0 66.85 0 124.933 37.536 154.322 92.681l0.458 0.942h3.826c0.134 0.001 0.292 0.001 0.45 0.001 61.277 0 110.952-49.675 110.952-110.952 0 0 0-0.001 0-0.001v0zM423.553 855.237h340.621c0.725-0.036 1.574-0.056 2.428-0.056 28.961 0 52.438 23.477 52.438 52.438s-23.477 52.438-52.438 52.438c-0.854 0-1.704-0.020-2.548-0.061l0.119 0.005h-340.621c-0.725 0.036-1.574 0.056-2.428 0.056-28.961 0-52.438-23.477-52.438-52.438s23.477-52.438 52.438-52.438c0.854 0 1.704 0.020 2.548 0.061l-0.119-0.005z" />
<glyph unicode="&#xe92b;" glyph-name="mall-member" horiz-adv-x="1129" d="M507.172 764.183c-29.857 19.136-49.361 52.147-49.361 89.714 0 58.657 47.551 106.208 106.208 106.208s106.208-47.551 106.208-106.208c0-37.566-19.504-70.577-48.938-89.46l-0.423-0.254 229.665-252.556 8.136 5.099 212.416 140.489c6.143 4.681 13.925 7.499 22.366 7.499 3.626 0 7.13-0.52 10.442-1.49l-0.262 0.066c14.646-4.546 25.098-17.974 25.098-33.843 0-2.032-0.171-4.025-0.501-5.963l0.029 0.209q-26.037-162.729-52.073-323.939-23.867-148.734-47.517-297.577c-1.736-10.849-3.689-21.697-5.424-33.197-1.521-18.328-16.771-32.627-35.36-32.627-0.842 0-1.677 0.029-2.504 0.087l0.111-0.006h-840.333c-24.735 0-36.994 10.849-40.899 35.475q-13.127 83.426-26.796 167.286c-0.649 2.553-1.021 5.483-1.021 8.501 0 19.832 16.077 35.909 35.909 35.909 0.588 0 1.173-0.014 1.754-0.042l-0.082 0.003c11.5 0 22.999 0 34.39 0h692.25c0.493 0.014 1.072 0.023 1.654 0.023 5.309 0 10.459-0.681 15.367-1.96l-0.423 0.094c14.402-4.571 24.655-17.821 24.655-33.466 0-1.089-0.050-2.167-0.147-3.23l0.010 0.137c-1.243-17.069-14.814-30.602-31.788-31.78l-0.107-0.006c-16.273-0.868-32.546 0-49.036 0h-647.77l17.032-106.533h779.689c0.588-0.169 1.264-0.266 1.962-0.266 4.074 0 7.377 3.303 7.377 7.377 0 0.132-0.003 0.262-0.010 0.392l0.001-0.018q25.169 160.017 50.988 319.925 17.249 107.293 34.499 214.477c0 1.627 0 3.363 0.651 6.726l-7.919-4.882-167.936-111.307c-21.697-14.429-37.428-12.476-54.785 6.726l-245.829 270.347c-1.519 1.627-2.821 3.363-4.556 5.533l-36.994-40.574-210.788-231.943c-1.085-1.302-2.278-2.604-3.472-3.797-17.032-18.443-32.546-20.504-54.243-6.835l-168.587 111.849-7.811 4.99c3.363-20.938 6.509-40.574 9.655-60.318 9.764-61.295 19.744-122.698 29.4-184.426 0.143-1.191 0.224-2.57 0.224-3.968 0-19.472-15.786-35.258-35.258-35.258-17.309 0-31.705 12.473-34.69 28.922l-0.032 0.215c-6.509 39.489-12.693 78.761-19.094 118.033-10.849 65.96-21.155 131.811-31.461 197.879-0.74 3.457-1.164 7.429-1.164 11.5s0.424 8.042 1.23 11.873l-0.066-0.374c4.22 14.756 17.588 25.375 33.435 25.375 7.655 0 14.732-2.478 20.472-6.675l-0.098 0.068c27.447-17.792 54.243-36.017 81.907-54.243l141.032-92.973 229.665 252.773z" />
<glyph unicode="&#xe92c;" d="M315.077 409.206h-157.538c-86.827-0.445-157.094-70.712-157.538-157.496v-157.581c0.445-86.827 70.712-157.094 157.496-157.538h157.581c86.827 0.445 157.094 70.712 157.538 157.496v157.581c-0.445 86.827-70.712 157.094-157.496 157.538h-0.043zM393.846 94.129c0-43.503-35.266-78.769-78.769-78.769v0h-157.538c-43.503 0-78.769 35.266-78.769 78.769v0 157.538c0 43.503 35.266 78.769 78.769 78.769v0h157.538c43.503 0 78.769-35.266 78.769-78.769v0zM866.462 959.311h-157.538c-86.827-0.445-157.094-70.712-157.538-157.496v-157.581c0.445-86.827 70.712-157.094 157.496-157.538h157.581c86.827 0.445 157.094 70.712 157.538 157.496v158.271c-0.723 86.575-70.908 156.518-157.507 156.849h-0.032zM945.231 644.923c0-43.503-35.266-78.769-78.769-78.769v0h-157.538c-43.503 0-78.769 35.266-78.769 78.769v0 157.538c0 43.503 35.266 78.769 78.769 78.769v0h157.538c43.503 0 78.769-35.266 78.769-78.769v0z" />
<glyph unicode="&#xe92d;" d="M473.206 644.923v157.538c-0.447 87.033-71.049 157.428-158.118 157.538h-157.549c-86.827-0.445-157.094-70.712-157.538-157.496v-157.581c0.445-86.827 70.712-157.094 157.496-157.538h157.581c86.827 0.445 157.094 70.712 157.538 157.496v0.043zM157.538 566.154c-43.503 0-78.769 35.266-78.769 78.769v0 157.538c0 43.503 35.266 78.769 78.769 78.769v0h157.538c43.503 0 78.769-35.266 78.769-78.769v0-157.538c0-43.503-35.266-78.769-78.769-78.769v0zM1024 93.538v157.538c-0.445 86.827-70.712 157.094-157.496 157.538h-157.581c-86.827-0.445-157.094-70.712-157.538-157.496v-157.581c0.445-86.827 70.712-157.094 157.496-157.538h157.581c86.871 0.334 157.204 70.667 157.538 157.507v0.032zM708.923 14.769c-43.503 0-78.769 35.266-78.769 78.769v0 157.538c0 43.503 35.266 78.769 78.769 78.769v0h157.538c43.503 0 78.769-35.266 78.769-78.769v0-157.538c0-43.503-35.266-78.769-78.769-78.769v0z" />
<glyph unicode="&#xe92e;" horiz-adv-x="1023" d="M565.268 132.923c-8.529 7.492-13.883 18.421-13.883 30.6 0 0.008 0 0.015 0 0.023v-0.001c0.93 10.86 7.125 20.095 15.993 25.222l0.155 0.083h1.083c4.348 2.356 9.52 3.742 15.015 3.742s10.667-1.385 15.185-3.825l-0.17 0.084 1.772-0.985 71.286-71.286 77.686 80.837c5.597 5.702 13.385 9.236 21.999 9.236 17.021 0 30.818-13.798 30.818-30.818 0-7.191-2.463-13.807-6.591-19.050l0.050 0.066-1.871-1.969-78.769-81.92 47.655-47.655 160.788 161.871c20.775 20.775 30.917 39.975 30.917 58.486s-9.846 37.809-31.015 59.077l-103.582 103.877-0.886 1.575c-2.516 4.408-3.999 9.686-3.999 15.311s1.483 10.903 4.080 15.465l-0.081-0.154c5.917 9.985 16.637 16.575 28.897 16.575 11.607 0 21.834-5.907 27.839-14.878l0.076-0.121 100.431-103.975c24.324-24.083 39.385-57.483 39.385-94.4 0-0.009 0-0.017 0-0.026v0.001c0.002-0.279 0.003-0.61 0.003-0.94 0-36.011-14.601-68.611-38.206-92.204l-214.843-214.843zM226.462 486.794c-0.038 0-0.084 0-0.129 0-8.089 0-15.453 3.107-20.963 8.192l0.021-0.019-49.231 48.148-148.185 142.769 215.237 235.52c20.677 20.775 38.4 38.597 72.96 38.597h6.006c38.125-3.131 71.896-19.616 97.088-44.707l-0.005 0.005 99.151-95.803c8.383-7.996 13.596-19.253 13.596-31.727 0-0.304-0.003-0.607-0.009-0.909l0.001 0.045c-1.315-10.069-7.31-18.505-15.694-23.156l-0.158-0.081h-0.492c-4.296-2.23-9.38-3.539-14.769-3.539s-10.473 1.308-14.951 3.624l0.182-0.086-1.969 0.985-103.582 102.892c-32.098 25.6-44.702 30.72-54.548 30.72s-24.222-8.369-45.883-29.538l-161.674-178.412 43.52-43.52 77.982 81.231c5.581 5.6 13.301 9.065 21.831 9.065 17.021 0 30.818-13.798 30.818-30.818 0-8.113-3.135-15.494-8.26-20.998l0.017 0.019-78.769-82.117 55.828-55.828c9.908-5.692 16.472-16.214 16.472-28.269 0-13.027-7.667-24.264-18.735-29.445l-0.199-0.084c-3.722-1.741-8.081-2.757-12.677-2.757-0.043 0-0.086 0-0.129 0h0.007z" />
<glyph unicode="&#xe92f;" horiz-adv-x="1023" d="M109.785 338.511l36.726 36.726 546.954 545.378c24.111 24.125 57.427 39.047 94.228 39.047s70.117-14.922 94.227-39.046l0.001-0.001 102.695-101.514c24.135-24.216 39.057-57.627 39.057-94.523s-14.922-70.307-39.061-94.527l-23.43-23.43-558.178-561.231-403.003-109.391zM90.585 26.585l280.615 77.883 31.114 31.015-212.283 193.28-21.662-21.662zM445.932 179.2l486.498 486.4c20.775 20.972 30.917 40.271 30.917 59.077s-9.846 37.612-30.917 58.486l-85.662 85.071c-20.578 20.874-39.385 31.015-58.289 31.015s-37.809-9.846-59.077-31.015l-495.655-495.951z" />
<glyph unicode="&#xe930;" horiz-adv-x="1030" d="M271.15 920.116c0.135 1.227 0.212 2.649 0.212 4.090 0 10.371-4 19.808-10.541 26.853l0.023-0.025c-7.206 5.651-16.403 9.062-26.397 9.062-1.011 0-2.013-0.035-3.006-0.104l0.134 0.007c-1.259 0.139-2.719 0.219-4.198 0.219-9.883 0-18.937-3.549-25.958-9.442l0.062 0.051c-5.487-7.26-8.788-16.437-8.788-26.386 0-1.596 0.085-3.173 0.251-4.725l-0.017 0.193v-175.614h-55.755c1.443 12.161 2.886 24.528 4.329 36.998s2.886 25.25 4.329 38.029c0.521 3.601 0.818 7.758 0.818 11.986 0 10.095-1.696 19.794-4.818 28.827l0.186-0.62c-3.916 8.966-14.119 13.81-30.918 14.531-1.741 0.331-3.743 0.52-5.789 0.52-9.602 0-18.231-4.169-24.175-10.796l-0.027-0.030c-6.479-11.012-10.306-24.257-10.306-38.396 0-0.088 0-0.176 0-0.265v0.014c-4.421-60.938-11.738-116.197-22.054-170.392l1.442 9.104c-11.696-62.593-25.505-115.859-42.488-167.686l2.604 9.181c-4.351-11.591-6.869-24.988-6.869-38.972 0-3.259 0.137-6.486 0.405-9.676l-0.028 0.417c1.638-11.362 9.745-20.471 20.41-23.551l0.202-0.050c4.573-2.333 9.974-3.699 15.695-3.699 8.231 0 15.8 2.829 21.79 7.569l-0.074-0.056c11.182 11.97 19.158 27.071 22.476 43.846l0.094 0.572q12.779 48.232 22.467 93.269c6.493 29.99 12.47 60.393 18.242 91.105h67.504v-295.781q-37.617-24.734-78.222-48.232t-85.436-46.068c-11.713-5.376-20.905-14.567-26.145-25.954l-0.135-0.327c-1.691-4.099-2.672-8.858-2.672-13.846 0-7.841 2.425-15.115 6.567-21.113l-0.081 0.124c5.044-10.62 15.546-17.905 27.783-18.241l0.043-0.001c18.001 1.911 34.335 7.643 48.643 16.368l-0.514-0.291q27.826 13.913 55.24 29.99c18.138 10.306 36.586 21.849 55.137 33.288v-301.243c-0.203-1.548-0.319-3.337-0.319-5.154 0-9.758 3.341-18.737 8.941-25.853l-0.068 0.090c7.12-5.165 16.033-8.262 25.669-8.262 1.558 0 3.098 0.081 4.614 0.239l-0.19-0.016c0.919-0.064 1.991-0.101 3.072-0.101 9.86 0 19.010 3.043 26.561 8.242l-0.158-0.103c6.561 6.763 10.605 15.999 10.605 26.18 0 1.67-0.109 3.315-0.32 4.927l0.020-0.19v352.67q28.032 20.612 52.045 38.544t44.419 36.483c17.932 17.108 28.032 30.918 30.918 41.224 0.316 1.745 0.496 3.754 0.496 5.805 0 10.461-4.695 19.826-12.092 26.102l-0.049 0.041q-30.196 33.288-69.668-6.39c-7.214-7.214-14.531-14.119-22.055-20.612s-15.459-13.81-24.116-20.612v238.068h83.684c1.225-0.148 2.643-0.233 4.081-0.233 9.921 0 18.901 4.028 25.394 10.538l0.001 0.001c5.079 7.18 8.119 16.116 8.119 25.762 0 0.944-0.029 1.88-0.086 2.809l0.006-0.127c0.024 0.562 0.037 1.221 0.037 1.884 0 9.904-3.017 19.103-8.183 26.729l0.107-0.168c-6.26 7.050-15.348 11.47-25.468 11.47-1.412 0-2.804-0.086-4.171-0.253l0.164 0.016h-83.684v175.614z" />
<glyph unicode="&#xe931;" horiz-adv-x="1030" d="M910.016 528.902c26.383 0 39.678 13.501 39.678 40.709s-13.295 40.709-39.678 40.709h-159.742v140.367h197.256c26.383 0 39.678 13.604 39.678 41.224s-13.295 40.296-39.678 40.296h-197.256v80.386c0.17 1.445 0.267 3.119 0.267 4.816 0 11.394-4.371 21.767-11.528 29.534l0.028-0.030c-8.069 6.058-18.252 9.701-29.287 9.701-1.19 0-2.371-0.042-3.54-0.126l0.157 0.009c-27.826 0-41.842-14.634-41.842-43.903v-80.386h-204.676q-39.678 0-39.678-40.709t39.678-41.224h204.676v-139.955h-163.968c-26.383 0-39.678-13.604-39.678-40.709s13.295-40.709 39.678-40.709h409.456zM893.939 465.314q0 28.857-10.306 38.029c-7.667 5.82-17.37 9.324-27.891 9.324-1.319 0-2.626-0.055-3.917-0.163l0.169 0.011c-1.096 0.1-2.37 0.157-3.657 0.157-10.398 0-19.926-3.719-27.329-9.9l0.068 0.055c-6.493-6.39-9.688-18.963-9.688-37.514v-49.262h-372.973q-39.678 0-39.678-41.224t39.678-40.709h372.973v-251.156c0-25.662-3.607-42.357-10.306-49.778s-20.612-11.337-41.739-11.337c-17.7 0.378-34.707 2.311-51.196 5.671l1.83-0.311c-25.422 5.349-47.651 12.453-68.845 21.513l2.372-0.901c-7.107 3.132-15.394 4.955-24.106 4.955-4.345 0-8.584-0.453-12.672-1.315l0.399 0.070c-11.591-2.569-20.783-10.874-24.56-21.717l-0.071-0.235c-3.081-6.153-4.885-13.406-4.885-21.080 0-5.705 0.997-11.178 2.826-16.252l-0.105 0.334q6.287-15.459 40.709-27.311c39.826-14.433 85.831-23.641 133.716-25.531l0.88-0.028q78.222 0 108.316 33.7t29.99 101.308v260.122h96.464c26.383 0 39.678 13.604 39.678 40.709s-13.295 41.224-39.678 41.224h-96.464v48.541zM497.366 324.122c-0.639 0.037-1.388 0.057-2.141 0.057-10.342 0-19.764-3.936-26.851-10.392l0.032 0.029c-8.214-6.284-13.912-15.497-15.533-26.054l-0.029-0.226c-1.031-9.585 4.122-21.23 15.562-34.834q26.795-32.155 55.755-69.050t53.591-75.646c15.047-24.219 34.628-28.857 58.95-13.913 9.353 6.34 15.658 16.57 16.584 28.313l0.008 0.131c0.006 0.318 0.009 0.692 0.009 1.068 0 14.809-5.046 28.439-13.512 39.266l0.106-0.14q-24.631 36.38-52.457 72.142t-58.95 70.699c-7.323 9.954-18.145 16.965-30.62 19.227l-0.297 0.045z" />
<glyph unicode="&#xe932;" horiz-adv-x="1524" d="M1443.608 424.95c-40.64 27.559-93.345 46.101-130.937 46.101h-1.651c-4.699 0-18.034-1.905-23.876-1.905h-321.945l-278.003 360.807c-18.358 26.283-37.502 57.159-55.040 89.043l-2.745 5.445c-12.441 20.986-34.75 34.974-60.369 35.558l-0.083 0.001h-3.048l-92.329-38.1c-39.116-11.811-65.024-28.194-65.024-69.342v-2.54l135.001-382.905h-206.756l-152.4 192.532c-18.034 23.368-37.211 35.306-57.023 35.306-0.065 0-0.141 0.001-0.218 0.001-5.71 0-11.136-1.216-16.034-3.402l0.25 0.1-71.628-29.845-1.651-0.762c-26.67-17.145-41.656-28.067-38.1-52.324 1.016-6.985 26.162-173.736 48.514-218.567v-0.889l2.286-2.032c43.434-65.278 78.867-111.76 100.965-139.7 23.633-30.039 48.041-56.821 74.234-81.745l0.314-0.297c29.083-26.543 52.578-39.37 71.755-39.37h1020.571c47.854 2.264 91.726 17.547 128.666 42.355l-0.904-0.572c50.165 33.020 77.724 78.613 77.724 128.524-0.127 47.879-28.575 93.345-80.518 128.524zM1316.608 215.654h-1012.57c-21.336 13.589-88.9 81.28-176.911 217.805-13.083 43.462-24.915 96.932-33.092 151.597l-0.817 6.645 26.035 10.922 155.194-193.548c13.56-16.405 33.875-26.811 56.623-26.924h235.858c25.142 0.232 47.346 12.603 61.061 31.529l0.153 0.221c8.89 11.857 14.236 26.817 14.236 43.025 0 8.566-1.493 16.784-4.234 24.407l0.158-0.503-130.302 358.521 54.61 23.368c14.859-24.765 30.099-50.8 52.578-81.661l0.762-0.889 2.159-2.159 282.194-368.3c13.847-17.344 34.862-28.462 58.486-28.828l0.061-0.001h327.66c1.731-0.087 3.759-0.137 5.798-0.137 7.646 0 15.13 0.697 22.39 2.030l-0.756-0.115c28.142-4.173 53.337-14.169 75.221-28.742l-0.672 0.421c27.813-18.034 43.815-38.1 43.815-56.515 0-49.657-81.788-81.153-116.332-81.153z" />
<glyph unicode="&#xe933;" horiz-adv-x="1524" d="M1264.411 18.677c-0.933 0.092-2.016 0.145-3.111 0.145s-2.179-0.053-3.248-0.155l0.136 0.011v1.143l-1037.081-0.762c-21.446-1.237-38.369-18.93-38.369-40.576s16.923-39.339 38.26-40.571l0.109-0.005v-1.397h1037.081v1.778c0.933-0.092 2.016-0.145 3.111-0.145s2.179 0.053 3.248 0.155l-0.136-0.011c42.418 0 76.962-1.778 76.962 40.767s-34.417 75.819-76.962 39.624z" />
<glyph unicode="&#xe934;" glyph-name="mine" horiz-adv-x="986" d="M493.327 259.012c-174.984 0-317.289 157.365-317.289 350.569s142.306 350.419 317.289 350.419 317.289-157.214 317.289-350.419-142.306-350.569-317.289-350.569zM493.327 888.019c-135.68 0-245.911-124.838-245.911-278.438s110.231-278.588 245.911-278.588 245.911 124.988 245.911 278.588-110.381 278.438-245.911 278.438zM943.435-63.699h-903.228c-18.002 0.041-32.881 13.359-35.366 30.679l-0.023 0.192c-30.118 210.372 87.341 293.195 201.035 373.308 5.693 4.068 12.795 6.505 20.467 6.505 12.081 0 22.751-6.044 29.151-15.273l0.077-0.117c4.033-5.75 6.445-12.892 6.445-20.598 0-12.163-6.008-22.922-15.218-29.472l-0.111-0.075c-105.864-74.692-184.471-129.958-174.532-273.167h841.035c15.812 133.572-64.452 189.591-164.442 259.313l-19.426 13.704c-9.244 6.651-15.193 17.38-15.193 29.498 0 7.724 2.417 14.884 6.537 20.764l-0.077-0.116c6.516 9.311 17.19 15.324 29.269 15.324 7.648 0 14.733-2.411 20.537-6.514l-0.112 0.075 19.125-13.402c107.671-75.294 229.948-160.527 188.988-361.864-3.271-16.497-17.628-28.762-34.85-28.762-0.031 0-0.061 0-0.092 0h0.005z" />
<glyph unicode="&#xe935;" horiz-adv-x="1021" d="M511.169 960c-20.363-0.011-40.441-1.172-60.19-3.419l2.428 0.225c-48.998-5.726-93.668-17.421-135.591-34.468l3.454 1.242c-42.427-16.869 345.039-340.567 353.601-353.601v363.569l-31.437 9.84c-39.595 10.553-85.053 16.613-131.926 16.613-0.119 0-0.238 0-0.358 0h0.019z" />
<glyph unicode="&#xe936;" horiz-adv-x="1021" d="M870.138 811.25c-13.386 13.798-27.431 26.71-42.185 38.788l-0.881 0.699c-33.255 26.843-71.107 50.154-111.753 68.343l-3.26 1.304v-500.69l256.863 257.118c-4.728 9.84-10.223 19.424-15.463 28.498-22.72 40.357-48.963 75.149-79.189 106.028l0.086-0.088z" />
<glyph unicode="&#xe937;" horiz-adv-x="1021" d="M984.001 636.813s-340.95-344.784-353.985-354.113h363.441c3.195 10.223 6.39 20.191 9.84 31.309 11.188 39.367 17.667 84.592 17.763 131.316v0.055c-0.011 20.363-1.171 40.442-3.419 60.19l0.225-2.428c-6.055 49.506-17.957 94.534-35.145 136.851l1.28-3.564z" />
<glyph unicode="&#xe938;" horiz-adv-x="1021" d="M477.816 245.385l256.99-256.607c9.84 4.728 19.424 10.223 29.264 15.463 40.336 22.783 75.122 49.020 106.040 79.201l-0.1-0.098c13.713 14.071 26.688 29.071 38.741 44.815l0.875 1.19c27.208 34.238 50.689 73.302 68.75 115.25l1.28 3.341c17.891 42.555-484.844-2.811-500.69 0z" />
<glyph unicode="&#xe939;" horiz-adv-x="1021" d="M346.445 327.172v-363.953c10.223-3.195 21.341-6.39 31.309-9.84 39.615-11.256 85.114-17.739 132.124-17.763h0.013c1.276-0.012 2.784-0.018 4.293-0.018 66.808 0 130.602 12.91 189.021 36.372l-3.415-1.211c60.446 23.769-343.634 342.1-353.218 355.902z" />
<glyph unicode="&#xe93a;" horiz-adv-x="1021" d="M310.024 477.073l-256.99-257.118c4.728-9.84 10.223-19.424 15.463-29.264 22.786-40.335 49.022-75.12 79.201-106.041l-0.098 0.101c13.386-13.797 27.432-26.709 42.185-38.788l0.881-0.7c34.238-27.208 73.302-50.689 115.25-68.75l3.341-1.28c42.555-17.891-2.811 485.611 0 500.69z" />
<glyph unicode="&#xe93b;" horiz-adv-x="1021" d="M16.996 580.329c-10.796-38.848-17-83.456-17-129.514 0-0.698 0.001-1.395 0.004-2.092v0.108c0.011-20.363 1.172-40.441 3.419-60.19l-0.225 2.428c5.676-49.168 17.375-94.019 34.467-136.104l-1.241 3.455c16.869-42.555 340.567 345.039 353.218 353.601h-362.802c-3.578-11.118-7.156-20.958-9.84-31.692z" />
<glyph unicode="&#xe93c;" horiz-adv-x="1021" d="M253.923 889.97c-40.246-22.619-74.924-48.869-105.609-79.155l0.052 0.052c-13.929-13.802-26.581-28.498-39.616-42.555-26.974-34.619-50.188-74.169-67.879-116.598l-1.256-3.399c-17.635-42.683 484.844 2.811 500.307 0l-257.502 256.735z" />
<glyph unicode="&#xe93d;" glyph-name="moment-disable" horiz-adv-x="1021" d="M511.169 960c-20.363-0.011-40.441-1.172-60.19-3.419l2.428 0.225c-48.998-5.726-93.668-17.421-135.591-34.468l3.454 1.242c-42.427-16.869 345.039-340.567 353.601-353.601v363.569l-31.437 9.84c-39.595 10.553-85.053 16.613-131.926 16.613-0.119 0-0.238 0-0.358 0h0.019zM870.138 811.25c-13.386 13.798-27.431 26.71-42.185 38.788l-0.881 0.699c-33.255 26.843-71.107 50.154-111.753 68.343l-3.26 1.304v-500.69l256.863 257.118c-4.728 9.84-10.223 19.424-15.463 28.498-22.72 40.357-48.963 75.149-79.189 106.028l0.086-0.088zM984.001 636.813s-340.95-344.784-353.985-354.113h363.441c3.195 10.223 6.39 20.191 9.84 31.309 11.188 39.367 17.667 84.592 17.763 131.316v0.055c-0.011 20.363-1.171 40.442-3.419 60.19l0.225-2.428c-6.055 49.506-17.957 94.534-35.145 136.851l1.28-3.564zM477.816 245.385l256.99-256.607c9.84 4.728 19.424 10.223 29.264 15.463 40.336 22.783 75.122 49.020 106.040 79.201l-0.1-0.098c13.713 14.071 26.688 29.071 38.741 44.815l0.875 1.19c27.208 34.238 50.689 73.302 68.75 115.25l1.28 3.341c17.891 42.555-484.844-2.811-500.69 0zM346.445 327.172v-363.953c10.223-3.195 21.341-6.39 31.309-9.84 39.615-11.256 85.114-17.739 132.124-17.763h0.013c1.276-0.012 2.784-0.018 4.293-0.018 66.808 0 130.602 12.91 189.021 36.372l-3.415-1.211c60.446 23.769-343.634 342.1-353.218 355.902zM310.024 477.073l-256.99-257.118c4.728-9.84 10.223-19.424 15.463-29.264 22.786-40.335 49.022-75.12 79.201-106.041l-0.098 0.101c13.386-13.797 27.432-26.709 42.185-38.788l0.881-0.7c34.238-27.208 73.302-50.689 115.25-68.75l3.341-1.28c42.555-17.891-2.811 485.611 0 500.69zM16.996 580.329c-10.796-38.848-17-83.456-17-129.514 0-0.698 0.001-1.395 0.004-2.092v0.108c0.011-20.363 1.172-40.441 3.419-60.19l-0.225 2.428c5.676-49.168 17.375-94.019 34.467-136.104l-1.241 3.455c16.869-42.555 340.567 345.039 353.218 353.601h-362.802c-3.578-11.118-7.156-20.958-9.84-31.692zM253.923 889.97c-40.246-22.619-74.924-48.869-105.609-79.155l0.052 0.052c-13.929-13.802-26.581-28.498-39.616-42.555-26.974-34.619-50.188-74.169-67.879-116.598l-1.256-3.399c-17.635-42.683 484.844 2.811 500.307 0l-257.502 256.735z" />
<glyph unicode="&#xe93e;" glyph-name="money" horiz-adv-x="887" d="M750.933-64h-614.4c-75.405 0-136.533 61.128-136.533 136.533v0 682.604l409.6-136.533h68.267l409.6 136.533v-682.604c0-75.405-61.128-136.533-136.533-136.533v0 0zM479.46 279.558l99.1 0.205c24.86-0.205 33.678 12.618 34.19 28.211 0.284 13.437-12.345 38.775-34.759 39.39h-99.044v23.893s75.207 76.732 94.72 94.379c19.456 17.744 24.405 31.698 12.288 46.080-12.117 14.672-33.508 13.75-49.323 0.717-16.043-13.124-92.729-84.526-92.729-84.526s-65.991 68.016-80.213 81.761c-12.743 12.311-40.050 24.206-54.613 7.691-15.303-17.334-3.356-38.878 6.144-48.424 9.557-9.33 92.046-96.529 92.046-96.529l-0.114-26.26h-103.424c-15.246 0-28.786-27.187-28.274-41.648 0.674-14.324 12.451-25.682 26.88-25.682 0.49 0 0.977 0.013 1.461 0.039l-0.067-0.003c16.213 0 103.14 0.614 103.14 0.614l-0.228-73.142h-107.179c-15.189 0-28.046-15.36-28.615-29.85-0.74-14.467 11.378-34.059 28.615-34.059h106.78s-0.228-25.031 0.512-35.499c1.308-23.182 16.725-32.722 37.148-33.132 0.252-0.007 0.549-0.011 0.847-0.011 18.073 0 32.85 14.115 33.908 31.923l0.004 0.093c0 12.618-0.284 36.625-0.284 36.625s88.804 0.205 105.643 0c16.839-0.102 29.355 16.822 28.615 34.059-0.512 17.232-10.98 30.464-36.523 30.464h-97.223zM477.867 686.933h-68.267l-409.6 136.533c0.023 75.396 61.137 136.511 136.531 136.533h614.402c75.405 0 136.533-61.128 136.533-136.533v0z" />
<glyph unicode="&#xe93f;" horiz-adv-x="935" d="M890.441 960h-845.965c-24.533-0.076-44.4-19.943-44.475-44.468v-930.515c0.076-27.114 22.036-49.074 49.143-49.15h841.431c24.522 0.151 44.342 20.065 44.342 44.608 0 0.047 0 0.094 0 0.142v-0.007 934.916c-0.076 24.533-19.943 44.4-44.468 44.475h-0.007zM523.152 252.135h-267.119c-18.441 0-33.39 14.949-33.39 33.39s14.949 33.39 33.39 33.39v0h267.119c18.441 0 33.39-14.949 33.39-33.39s-14.949-33.39-33.39-33.39v0zM656.712 407.999h-400.678c-18.441 0-33.39 14.949-33.39 33.39s14.949 33.39 33.39 33.39v0h400.678c18.441 0 33.39-14.949 33.39-33.39s-14.949-33.39-33.39-33.39v0zM656.712 563.863h-400.678c-18.441 0-33.39 14.949-33.39 33.39s14.949 33.39 33.39 33.39v0h400.678c18.441 0 33.39-14.949 33.39-33.39s-14.949-33.39-33.39-33.39v0z" />
<glyph unicode="&#xe940;" horiz-adv-x="935" d="M267.119 620.492h400.678c18.441 0 33.39-14.949 33.39-33.39s-14.949-33.39-33.39-33.39v0h-400.678c-18.441 0-33.39 14.949-33.39 33.39s14.949 33.39 33.39 33.39v0zM267.119 464.628h400.678c18.441 0 33.39-14.949 33.39-33.39s-14.949-33.39-33.39-33.39v0h-400.678c-18.441 0-33.39 14.949-33.39 33.39s14.949 33.39 33.39 33.39v0zM267.119 308.764h267.119c18.441 0 33.39-14.949 33.39-33.39s-14.949-33.39-33.39-33.39v0h-267.119c-18.441 0-33.39 14.949-33.39 33.39s14.949 33.39 33.39 33.39v0z" />
<glyph unicode="&#xe941;" glyph-name="pearl" horiz-adv-x="1396" d="M1152.939-64c-0.36-0.002-0.786-0.003-1.212-0.003-135.070 0-244.565 109.496-244.565 244.565s109.496 244.565 244.565 244.565c135.069 0 244.564-109.494 244.565-244.562v0c0-0.097 0-0.211 0-0.326 0-134.579-108.845-243.735-243.306-244.239h-0.048zM462.148 30.891c-0.689-0.004-1.505-0.006-2.321-0.006-256.566 0-464.555 207.988-464.555 464.555s207.988 464.555 464.555 464.555c256.564 0 464.551-207.985 464.555-464.549v0c0-0.193 0-0.422 0-0.652 0-255.62-206.746-462.953-462.143-463.903h-0.091z" />
<glyph unicode="&#xe942;" glyph-name="pearl-num" horiz-adv-x="1396" d="M462.148 960c-0.679 0.004-1.483 0.006-2.287 0.006-256.548 0-464.521-207.973-464.521-464.521s207.973-464.521 464.521-464.521c256.546 0 464.517 207.97 464.521 464.515v0c0 0.183 0 0.4 0 0.617 0 255.62-206.745 462.952-462.142 463.903h-0.092zM462.148 92.075c-0.593-0.003-1.295-0.005-1.997-0.005-222.794 0-403.405 180.61-403.405 403.405s180.61 403.405 403.405 403.405c222.793 0 403.402-180.608 403.405-403.4v0c0-0.183 0-0.4 0-0.617 0-221.966-179.551-401.995-401.335-402.771h-0.074zM1152.939 425.165c-0.355 0.002-0.775 0.003-1.195 0.003-135.060 0-244.548-109.488-244.548-244.548s109.488-244.548 244.548-244.548c135.059 0 244.547 109.486 244.548 244.545v0c0 0.102 0 0.222 0 0.343 0 134.575-108.847 243.728-243.307 244.222h-0.047zM1152.939-8.806c-0.284-0.002-0.62-0.002-0.956-0.002-104.625 0-189.44 84.815-189.44 189.44s84.815 189.44 189.44 189.44c104.624 0 189.438-84.814 189.44-189.437v0c0-0.076 0-0.167 0-0.257 0-104.234-84.304-188.778-188.447-189.166h-0.037z" />
<glyph unicode="&#xe943;" glyph-name="qrcode" d="M0 478.123h481.877v481.877h-481.877v-481.877zM120.474 839.526h240.93v-240.93h-240.93v240.93zM542.123 960v-481.877h481.877v481.877h-481.877zM903.526 598.596h-240.93v240.93h240.93v-240.93zM180.702 658.825h120.474v120.474h-120.474v-120.474zM0-64h481.877v481.877h-481.877v-481.877zM120.474 297.421h240.93v-240.947h-240.93v240.947zM843.298 779.298h-120.474v-120.474h120.474v120.474zM542.123-64h120.474v120.474h-120.474v-120.474zM662.596 297.421v-240.947h120.474v240.947h-120.474zM903.526 56.474h-120.457v-120.474h240.93v240.947h-120.474v-120.474zM903.526 297.421h120.474v120.457h-120.474v-120.457zM542.123 417.877v-120.457h120.474v120.457h-120.474zM180.702 116.702h120.474v120.474h-120.474v-120.474z" />
<glyph unicode="&#xe944;" glyph-name="rank" horiz-adv-x="1271" d="M87.813 453.165v0zM967.18 907.726c-1.24 1.033-2.273 2.066-3.306 3.099-31.538 30.631-74.612 49.534-122.101 49.588h-412.627c-49.166-0.071-93.615-20.212-125.603-52.667l-0.021-0.021-284.1-288.026c-12.266-12.499-19.838-29.643-19.838-48.555s7.571-36.056 19.848-48.566l-0.011 0.011 33.472-33.885 34.918-35.538 27.687-27.893 60.126-61.159v-0.207l399.6-404.765c15.788-14.476 36.921-23.347 60.126-23.347s44.338 8.871 60.192 23.407l-0.066-0.060 3.306 3.306 552.497 560.142c12.266 12.499 19.838 29.643 19.838 48.555s-7.571 36.056-19.848 48.566l0.011-0.011z" />
<glyph unicode="&#xe945;" glyph-name="realname" d="M401.234 537.632c0-0.005 0-0.011 0-0.017 0-37.825 19.659-71.057 49.318-90.038l0.428-0.256c-22.953-8.681-42.465-21.832-58.299-38.508l-0.063-0.067c-28.612-27.266-50.425-66.381-50.425-95.764 0-18.246 16.624-33.72 35.089-33.72h143.704c-12.187 17.997-19.455 40.189-19.455 64.079 0 42.421 22.919 79.49 57.050 99.498l0.543 0.294-0.276 0.115c33.904 18.422 56.534 53.766 56.534 94.395 0 59.135-47.938 107.073-107.073 107.073s-107.073-47.938-107.073-107.073v0zM536.275 395.85c-6.643-11.197-10.57-24.683-10.57-39.086 0-42.831 34.721-77.552 77.552-77.552s77.552 34.721 77.552 77.552c0 42.464-34.129 76.957-76.453 77.545l-0.055 0.001c-0.308 0.004-0.673 0.007-1.037 0.007-28.43 0-53.288-15.296-66.792-38.107l-0.197-0.36zM650.446 384.874c1.373-1.376 2.223-3.275 2.223-5.373s-0.849-3.997-2.223-5.373v0l-53.013-53.565s-0.069-0.138-0.127-0.196-0.196-0.138-0.299-0.219v0l-0.15-0.092c-0.65-0.621-1.412-1.132-2.251-1.499l-0.050-0.020c-0.276-0.127-0.598-0.127-0.897-0.219-0.535-0.171-1.157-0.293-1.8-0.343l-0.029-0.002c-0.64 0.003-1.258 0.095-1.842 0.265l0.047-0.012c-1.311 0.13-2.465 0.713-3.324 1.587l-0.001 0.001-0.138 0.069c-0.094 0.082-0.2 0.154-0.313 0.214l-0.009 0.004s-0.081 0.161-0.138 0.207l-25.839 23.239c-1.661 1.404-2.709 3.489-2.709 5.819 0 4.2 3.405 7.605 7.605 7.605 2.055 0 3.92-0.815 5.288-2.14l-0.002 0.002 20.881-18.833 48.319 48.768c1.382 1.411 3.307 2.286 5.436 2.286 2.084 0 3.971-0.838 5.345-2.195l-0.001 0.001zM511.954 960c-282.725 0-511.954-229.229-511.954-511.954s229.229-511.954 511.954-511.954 511.954 229.229 511.954 511.954-229.137 511.954-511.954 511.954zM805.114 394.78s-21.652-171.188-227.308-283.887c0 0-37.459-11.838-71.8-11.838-37.321 0-71.766 11.838-71.766 11.838s-185.224 115.046-215.354 283.887v307.518s146.43-15.060 287.12 94.614c109.063-107.821 255.482-82.476 299.119-94.614z" />
<glyph unicode="&#xe946;" glyph-name="report" horiz-adv-x="802" d="M486.793 192v-256h-429.483c-0.066 0-0.144 0-0.222 0-31.436 0-56.935 25.416-57.070 56.82v910.349c0.009 15.697 6.438 29.891 16.804 40.1l0.007 0.007c10.316 10.333 24.576 16.726 40.33 16.726 0.054 0 0.107 0 0.161 0h687.318c0.066 0 0.144 0 0.222 0 31.436 0 56.935-25.416 57.070-56.82v-654.349h-257.707c-0.086 0-0.189 0.001-0.291 0.001-31.442 0-56.95-25.412-57.104-56.818v-0.015zM171.776 476.331h229.137c15.694 0 28.416 12.722 28.416 28.416s-12.722 28.416-28.416 28.416h-229.137c-15.694 0-28.416-12.722-28.416-28.416s12.722-28.416 28.416-28.416v0zM171.776 590.165h229.137c15.694 0 28.416 12.722 28.416 28.416s-12.722 28.416-28.416 28.416h-229.137c-15.694 0-28.416-12.722-28.416-28.416s12.722-28.416 28.416-28.416v0zM572.843 732.331c-0.008 7.864-3.195 14.982-8.346 20.139v0c-5.204 5.138-12.347 8.324-20.234 8.363h-372.488c-15.694 0-28.416-12.722-28.416-28.416s12.722-28.416 28.416-28.416h372.309c7.894 0.039 15.037 3.225 20.244 8.366l-0.003-0.003c5.213 5.062 8.448 12.136 8.448 19.966 0 0.001 0 0.001 0 0.002v0zM572.843 192h200.448c0.051 0 0.111 0.001 0.171 0.001 15.667 0 28.375-12.672 28.433-28.326v-0.006l-229.12-227.669c-7.894 0.039-15.037 3.225-20.244 8.366l0.003-0.003c-5.146 5.095-8.336 12.158-8.346 19.966v199.341c0.010 7.81 3.199 14.873 8.343 19.966l0.002 0.002c5.192 5.158 12.343 8.349 20.239 8.363h0.003z" />
<glyph unicode="&#xe947;" glyph-name="right" horiz-adv-x="556" d="M476.595 478.719c8.193 7.185 18.999 11.568 30.829 11.568 25.882 0 46.863-20.981 46.863-46.863 0-11.83-4.383-22.636-11.614-30.883l0.046 0.053-463.052-462.911c-8.111-6.902-18.708-11.101-30.286-11.101-25.882 0-46.863 20.981-46.863 46.863 0 11.613 4.224 22.239 11.219 30.426l-0.054-0.065zM13.684 880.193c-7.124 8.176-11.468 18.938-11.468 30.714 0 25.882 20.981 46.863 46.863 46.863 11.718 0 22.431-4.301 30.647-11.409l-0.059 0.050 462.864-462.911c7.185-8.193 11.568-18.999 11.568-30.829 0-25.882-20.981-46.863-46.863-46.863-11.83 0-22.636 4.383-30.883 11.614l0.053-0.046z" />
<glyph unicode="&#xe948;" glyph-name="scan" horiz-adv-x="1101" d="M80.896 601.6c23.093 0 41.813 18.72 41.813 41.813v0 197.12c0.474 19.779 16.529 35.655 36.334 35.84h195.431c23.093 0 41.813 18.72 41.813 41.813s-18.72 41.813-41.813 41.813v0h-195.413c-65.98 0-119.467-53.487-119.467-119.467v0-195.925c-0.006-0.257-0.009-0.559-0.009-0.862 0-22.984 18.395-41.673 41.266-42.145l0.044-0.001zM706.901 876.373h234.496c19.823-0.185 35.878-16.060 36.351-35.796l0.001-0.044v-195.925c0-23.093 18.72-41.813 41.813-41.813s41.813 18.72 41.813 41.813v195.925c0 65.98-53.487 119.467-119.467 119.467v0h-235.008c-23.093 0-41.813-18.72-41.813-41.813s18.72-41.813 41.813-41.813v0zM1020.075 294.4c-23.093 0-41.813-18.72-41.813-41.813v0-195.413c-0.474-19.779-16.529-35.655-36.334-35.84h-234.514c-23.093 0-41.813-18.72-41.813-41.813s18.72-41.813 41.813-41.813h234.496c65.98 0 119.467 53.487 119.467 119.467v0 195.413c0 0.001 0 0.002 0 0.003 0 22.913-18.43 41.521-41.274 41.81h-0.027zM354.475 19.627h-195.413c-19.823 0.185-35.878 16.060-36.351 35.796l-0.001 0.044v195.925c0 23.093-18.72 41.813-41.813 41.813s-41.813-18.72-41.813-41.813v0-195.925c0-65.98 53.487-119.467 119.467-119.467v0h195.925c23.093 0 41.813 18.72 41.813 41.813v0c0.002 0.152 0.003 0.332 0.003 0.512 0 22.81-18.491 41.301-41.301 41.301-0.001 0-0.002 0-0.003 0v0zM1059.157 489.813h-1017.344c-23.093 0-41.813-18.72-41.813-41.813s18.72-41.813 41.813-41.813h1017.344c23.093 0 41.813 18.72 41.813 41.813s-18.72 41.813-41.813 41.813v0z" />
<glyph unicode="&#xe949;" glyph-name="search" horiz-adv-x="1022" d="M1009.69 7.347l-177.866 177.866c68.549 81.297 110.208 187.219 110.208 302.871 0 260.28-210.998 471.278-471.278 471.278-193.67 0-360.055-116.822-432.532-283.843l-1.178-3.047c-23.636-54.276-37.388-117.507-37.388-183.949 0-260.243 210.968-471.211 471.211-471.211 115.124 0 220.606 41.285 302.447 109.858l-0.735-0.599 177.866-177.866c7.564-7.564 18.013-12.242 29.555-12.242 23.084 0 41.797 18.713 41.797 41.797 0 11.542-4.678 21.991-12.242 29.555v0zM471.278 98.019c-0.015 0-0.032 0-0.050 0-215.78 0-390.703 174.924-390.703 390.703 0 107.902 43.741 205.588 114.459 276.294l0.001 0.001c70.482 69.425 167.291 112.294 274.112 112.294 215.78 0 390.703-174.924 390.703-390.703 0-106.822-42.869-203.631-112.342-274.161l0.048 0.049c-70.27-70.712-167.583-114.478-275.119-114.478-0.39 0-0.78 0.001-1.169 0.002h0.060z" />
<glyph unicode="&#xe94b;" glyph-name="share" horiz-adv-x="878" d="M732.014 228.571c-40.753-0.071-77.573-16.853-103.983-43.859l-0.026-0.027-352.402 196.315c10.402 19.333 16.56 42.287 16.676 66.67v0.036c-0.259 14.757-2.647 28.862-6.869 42.15l0.286-1.043 347.429 216.357c25.51-23.406 59.633-37.783 97.113-37.888h0.021c0.714-0.012 1.556-0.019 2.4-0.019 81.963 0 148.407 66.444 148.407 148.407s-66.444 148.407-148.407 148.407c-81.963 0-148.407-66.444-148.407-148.407 0-17.743 3.114-34.759 8.825-50.532l-0.327 1.033-344.21-214.162c-26.335 25.834-62.45 41.779-102.29 41.779-80.694 0-146.11-65.416-146.11-146.11 0-80.656 65.353-146.047 145.994-146.11h0.006c0.035 0 0.077 0 0.119 0 29.441 0 56.801 8.905 79.535 24.169l-0.513-0.325 366.299-204.069c-3.562-11.617-5.689-24.985-5.851-38.826l-0.001-0.086c0.125-80.495 65.408-145.7 145.92-145.7 80.589 0 145.92 65.331 145.92 145.92 0 80.461-65.122 145.711-145.534 145.92h-0.020zM730.258 886.711c0.043 0 0.095 0 0.146 0 40.396 0 73.143-32.747 73.143-73.143s-32.747-73.143-73.143-73.143c-40.396 0-73.143 32.747-73.143 73.143v0c0 0 0 0 0 0 0 40.344 32.664 73.059 72.989 73.143h0.008zM73.289 447.707c0.083 40.252 32.733 72.85 72.996 72.85 40.315 0 72.997-32.682 72.997-72.997s-32.682-72.996-72.996-72.997v0c-40.333 0.083-72.997 32.798-72.997 73.143 0 0 0 0 0 0v0zM732.014 8.997c-0.065 0-0.142 0-0.219 0-40.436 0-73.216 32.78-73.216 73.216s32.78 73.216 73.216 73.216c40.41 0 73.174-32.738 73.216-73.139v-0.004c0-0.009 0-0.019 0-0.030 0-40.368-32.65-73.11-72.982-73.259h-0.014z" />
<glyph unicode="&#xe94c;" glyph-name="shell" horiz-adv-x="1066" d="M978.582 230.374c-51.554-67.693-117.968-121.454-194.571-156.949l-3.185-1.324 5.782-73.849c0.132-1.473 0.207-3.185 0.207-4.916 0-15.14-5.767-28.933-15.223-39.303l0.041 0.046c-10.028-10.887-24.34-17.696-40.243-17.737h-396.663c-0.020 0-0.043 0-0.067 0-15.94 0-30.287 6.819-40.285 17.698l-0.036 0.039c-9.415 10.248-15.185 23.975-15.185 39.049 0 1.804 0.083 3.589 0.244 5.351l-0.017-0.226 5.782 73.849c-79.839 36.775-146.29 90.544-196.922 157.015l-0.92 1.259c-54.301 70.986-87.152 160.896-87.562 258.463v0.095c0 0.054 0 0.119 0 0.183 0 67.28 15.741 130.883 43.742 187.327l-1.104-2.46c29.135 58.787 67.901 108.487 114.772 149.075l0.59 0.5c100.783 84.676 231.954 136.119 375.14 136.119s274.356-51.442 376.038-136.853l-0.898 0.734c47.417-41.12 86.169-90.811 114.11-146.838l1.235-2.737c26.897-53.98 42.638-117.577 42.638-184.851 0-0.070 0-0.14 0-0.21v0.011c-0.373-97.648-33.183-187.561-88.207-259.601l0.764 1.043zM451.096 234.297l-236.131 466.462c-6.404 12.239-19.012 20.448-33.537 20.448-20.836 0-37.726-16.891-37.726-37.726 0-6.134 1.464-11.927 4.062-17.047l-0.099 0.215 236.131-466.292c6.358-12.421 19.059-20.782 33.715-20.807h0.004c6.225 0.033 12.089 1.542 17.272 4.194l-0.217-0.101c12.337 6.345 20.63 18.988 20.63 33.568 0 6.236-1.517 12.118-4.202 17.296l0.099-0.209zM910.275 717.303c-4.968 2.575-10.845 4.086-17.076 4.086-14.597 0-27.258-8.29-33.531-20.419l-0.099-0.21-235.994-466.462c-2.552-4.95-4.047-10.802-4.047-17.004 0-20.805 16.833-37.678 37.623-37.743h0.006c14.607 0.061 27.268 8.329 33.618 20.428l0.1 0.209 235.994 466.462c2.582 4.964 4.096 10.838 4.096 17.067 0 14.601-8.32 27.258-20.479 33.489l-0.212 0.099z" />
<glyph unicode="&#xe94d;" glyph-name="shell-num" horiz-adv-x="1066" d="M1066.269 488.964c-0.424-97.676-33.25-187.604-88.273-259.677l0.766 1.046c-51.635-67.663-118.073-121.425-194.678-156.984l-3.193-1.33 5.8-73.878c0.144-1.527 0.225-3.301 0.225-5.095 0-15.089-5.791-28.826-15.273-39.108l0.036 0.040c-10.015-10.912-24.337-17.734-40.252-17.757h-396.599c-15.97 0.037-30.341 6.853-40.394 17.721l-0.033 0.037c-9.435 10.33-15.214 24.138-15.214 39.296 0 1.713 0.074 3.409 0.218 5.085l-0.015-0.218 5.8 73.878c-79.786 36.846-146.202 90.617-196.849 157.056l-0.92 1.258c-54.318 71.004-87.176 160.942-87.575 258.539v0.093c0 0.052 0 0.114 0 0.176 0 67.263 15.744 130.849 43.748 187.273l-1.103-2.457c29.137 58.825 67.927 108.552 114.838 149.147l0.593 0.502c100.797 84.685 231.984 136.132 375.188 136.132s274.39-51.447 376.086-136.867l-0.898 0.735c2.729-2.422 5.117-5.117 7.847-7.574 2.426-1.858 4.552-3.903 6.43-6.162l0.052-0.064c40.819-38.102 74.642-83.062 99.755-133.146l1.228-2.703c26.911-53.958 42.662-117.536 42.662-184.792 0-0.070 0-0.141 0-0.211v0.011zM902.685 720.849l-211.688-418.276c-6.397-12.338-19.072-20.623-33.682-20.623-0.032 0-0.065 0-0.097 0h0.005c-0.094-0.001-0.205-0.001-0.315-0.001-6.053 0-11.759 1.489-16.77 4.122l0.198-0.095c-12.43 6.321-20.798 19.016-20.798 33.666 0 6.22 1.509 12.088 4.18 17.258l-0.099-0.21 222.434 439.53c-85.423 67.134-194.515 107.669-313.074 107.669-115.782 0-222.534-38.657-308.055-103.769l1.247 0.911 224.993-444.34c2.576-4.969 4.086-10.847 4.086-17.078 0-14.599-8.291-27.262-20.422-33.536l-0.211-0.099c-4.971-2.533-10.84-4.019-17.056-4.026h-0.002c-0.029 0-0.062 0-0.096 0-14.643 0-27.337 8.349-33.579 20.547l-0.099 0.213-214.929 424.382c-57.228-62.775-92.578-146.363-93.51-238.194l-0.002-0.189c0.388-80.664 27.623-154.892 73.219-214.287l-0.621 0.842c49.031-63.885 113.679-113.467 188.325-143.402l2.996-1.061c13.899-5.761 23.497-19.22 23.497-34.921 0-1.092-0.046-2.172-0.137-3.24l0.010 0.139-6.482-81.042h353.78l-6.311 81.042c-0.078 0.909-0.122 1.967-0.122 3.035 0 15.717 9.592 29.193 23.242 34.895l0.25 0.092c77.577 31.061 142.177 80.629 190.441 143.41l0.778 1.053c45.333 58.384 72.675 132.705 72.675 213.413 0 89.27-33.451 170.728-88.503 232.521l0.305-0.349z" />
<glyph unicode="&#xe94e;" glyph-name="sign" horiz-adv-x="1125" d="M792.82 506.076c-7.823 8.884-19.221 14.46-31.922 14.46-10.741 0-20.551-3.988-28.029-10.563l0.047 0.041-256.492-218.525-81.56 86.060c-7.754 8.152-18.683 13.223-30.796 13.223-23.457 0-42.472-19.016-42.472-42.472 0-11.344 4.447-21.649 11.693-29.267l-0.017 0.018 109.122-115.309c7.75-8.123 18.659-13.174 30.747-13.174 10.503 0 20.116 3.813 27.529 10.13l-0.060-0.050 286.866 245.524c9.168 7.838 14.943 19.414 14.943 32.34 0 10.547-3.845 20.196-10.209 27.622l0.048-0.057zM269.992 706.883c7.996-9.418 19.844-15.354 33.080-15.354 11.888 0 22.658 4.79 30.484 12.545l-0.003-0.003c7.819 7.75 12.66 18.493 12.66 30.366 0 0.201-0.001 0.401-0.004 0.601v-0.030 181.963c-0.344 9.179-3.569 17.544-8.79 24.283l0.072-0.097c-1.619 2.429-3.379 4.546-5.337 6.462l-0.007 0.007c-5.366 5.247-12.129 9.087-19.678 10.909l-0.29 0.059c-2.746 0.77-5.925 1.275-9.201 1.404l-0.080 0.003c-0.084 0.001-0.182 0.001-0.281 0.001-23.765 0-43.030-19.265-43.030-43.030 0 0 0-0.001 0-0.001v0-181.963c0-0.051 0-0.11 0-0.17 0-10.713 3.941-20.505 10.451-28.007l-0.045 0.053zM822.069 691.696c0.018 0 0.038 0 0.059 0 11.945 0 22.761 4.836 30.597 12.657l-0.001-0.001c7.817 7.749 12.657 18.491 12.657 30.363 0 0.103 0 0.205-0.001 0.308v-0.016 181.963c0.13 1.307 0.204 2.824 0.204 4.359s-0.074 3.053-0.219 4.549l0.015-0.19c-5.73 17.666-22.042 30.213-41.283 30.213-22.378 0-40.792-16.971-43.073-38.744l-0.016-0.187v-181.963c0.030-11.87 4.862-22.606 12.655-30.373l0.001-0.001c7.864-7.809 18.694-12.64 30.652-12.656h0.003zM1122.716 739.225c-0.788 48.652-28.313 90.697-68.49 112.157l-0.695 0.339c-19.59 10.182-42.775 16.154-67.355 16.154-2.128 0-4.245-0.045-6.35-0.133l0.301 0.010h-33.186c-21.26-2.53-37.588-20.451-37.588-42.186s16.328-39.656 37.387-42.167l0.201-0.020c36.561 0 88.872 4.219 91.122-46.124 0-204.463 0-408.925 0-613.669v-56.248c0.009-0.339 0.015-0.738 0.015-1.139 0-24.306-19.393-44.083-43.55-44.702l-0.057-0.001h-864.536c-24.243 0.777-43.601 20.616-43.601 44.977 0 0.304 0.003 0.608 0.009 0.911l-0.001-0.045v669.917c0.951 27.522 23.491 49.471 51.157 49.471 1.793 0 3.564-0.092 5.31-0.272l-0.219 0.018h34.311c1.465-0.179 3.16-0.281 4.879-0.281 23.454 0 42.467 19.013 42.467 42.467s-19.013 42.467-42.467 42.467c-1.719 0-3.415-0.102-5.081-0.301l0.201 0.020h-33.468c-1.387 0.049-3.016 0.077-4.652 0.077-62.107 0-114.811-40.264-133.431-96.112l-0.287-0.993c-3.013-10.91-4.847-23.475-5.061-36.433l-0.002-0.128v-669.073c0.164-49.512 27.125-92.691 67.132-115.808l0.647-0.345c17.83-10.087 39.155-16.031 61.869-16.031 0.1 0 0.201 0 0.301 0h865.083c71.971 1.419 129.789 60.025 129.934 132.169v0.014zM431.987 783.662h260.711c1.465-0.179 3.16-0.281 4.879-0.281 23.454 0 42.467 19.013 42.467 42.467s-19.013 42.467-42.467 42.467c-1.719 0-3.415-0.102-5.081-0.301l0.201 0.020h-260.711c-1.465 0.179-3.16 0.281-4.879 0.281-23.454 0-42.467-19.013-42.467-42.467s19.013-42.467 42.467-42.467c1.719 0 3.415 0.102 5.081 0.301l-0.201-0.020z" />
<glyph unicode="&#xe94f;" glyph-name="trade" horiz-adv-x="954" d="M430.934-64c-231.676 0-512.658 325.2-409.132 418.783h4.928c19.725 9.797 44.364 4.825 69.003-9.943 4.928-9.797 24.639-24.565 54.22-54.103l4.928-4.972c22.874-20.274 43.796-41.187 63.412-63.285l0.663-0.761c29.179-26.708 61.42-51.078 95.83-72.265l2.754-1.578c64.090-39.48 162.673-59.22 285.91-59.22h59.147l-44.364 44.452c-18.163 18.904-34.439 39.873-48.371 62.443l-0.921 1.602c-14.783 24.565-9.855 44.306 14.783 64.046h4.928c5.346 3.047 11.748 4.843 18.568 4.843 0.407 0 0.812-0.006 1.216-0.019l-0.059 0.001c9.855-4.825 24.653-9.797 93.656-34.509 138.020-54.103 172.543-64.046 241.531-93.583h4.942c0-4.825 0-4.825 4.928-4.825v-197.109h-522.499zM810.5 236.488c-24.653 9.797-54.234 19.74-93.67 34.509-69.003 24.565-83.786 29.537-98.584 34.509-5.706 1.971-12.281 3.109-19.122 3.109-11.108 0-21.515-3-30.455-8.235l0.285 0.154-9.855-4.972c-44.364-34.362-54.234-78.814-29.581-128.091l14.783-29.537c-88.728 4.972-157.731 24.712-202.095 49.277-33.409 21.019-62.441 43.785-88.915 69.195l0.186-0.178s-39.48 44.306-59.147 64.046l-9.855 9.797c-11.43 16.663-22.897 35.997-33.12 56.071l-1.388 3.003c-18.948 46.062-29.948 99.534-29.948 155.574 0 172.82 104.613 321.206 253.969 385.288l2.728 1.041c44.939 18.269 97.072 28.871 151.681 28.871 174.972 0 324.523-108.837 384.648-262.505l0.967-2.808c18.106-45.183 28.608-97.559 28.608-152.387 0-110.598-42.731-211.216-112.584-286.244l0.234 0.254zM637.957 522.208c19.711 0 24.639 4.972 24.639 24.565s-4.928 24.712-24.639 24.712h-69.017l-4.928 19.74 73.945 123.12c6.1 5.773 9.896 13.927 9.896 22.967 0 0.562-0.015 1.121-0.044 1.676l0.003-0.078c0.057 0.468 0.089 1.010 0.089 1.56 0 6.237-4.154 11.504-9.847 13.184l-0.097 0.025c-2.572 2.617-5.974 4.413-9.778 4.961l-0.092 0.011h-4.928c0.001-0.035 0.001-0.076 0.001-0.118 0-2.681-2.173-4.855-4.855-4.855-0.026 0-0.052 0-0.078 0.001h0.004c-1.569-6.071-5.066-11.165-9.788-14.72l-0.068-0.049c-14.783-24.565-29.566-54.103-44.364-78.814s-29.581-54.103-44.364-78.814l-9.855-14.769-9.855 19.74-93.714 157.628c-2.038 7.191-7.59 12.738-14.634 14.732l-0.149 0.036c-0.348 0.012-0.756 0.018-1.166 0.018-6.835 0-13.238-1.853-18.733-5.084l0.174 0.094c-5.935-4.618-9.746-11.723-9.855-19.722v-0.018c-4.942-4.825 0-9.797 4.928-19.594 9.855-19.74 24.639-39.48 39.48-64.046 13.874-25.291 26.948-46.216 41.028-66.387l-1.547 2.341 9.855-14.769h-69.032c-19.711 0-24.639-4.972-24.639-24.712s4.928-24.565 24.639-24.565h98.613v-54.249h-98.613c-19.711 0-24.639-4.825-24.639-24.565s4.928-24.565 24.639-24.565h98.613v-83.786c0-14.769 0-19.74 4.928-24.712 0-4.825 9.87-4.825 19.725-4.825 14.783 0 24.639 0 24.639 4.825 4.942 0 4.942 9.943 4.942 24.712v83.786h98.584c19.711 0 24.639 4.825 24.639 24.565s-4.928 24.565-24.639 24.565h-98.584v54.249h98.584z" />
<glyph unicode="&#xe950;" glyph-name="warning" horiz-adv-x="1208" d="M1199.747 26.972l-543.799 904.040c-10.768 17.616-29.895 29.195-51.727 29.195s-40.96-11.579-51.577-28.931l-0.15-0.265-543.799-904.040c-5.366-8.817-8.543-19.478-8.543-30.882 0-33.187 26.903-60.091 60.091-60.091 0.063 0 0.126 0 0.189 0h1087.588c0.056 0 0.122 0 0.188 0 33.187 0 60.091 26.903 60.091 60.091 0 11.41-3.18 22.077-8.702 31.163l0.15-0.266zM604.221 82.634c-32.54 0.151-58.86 26.564-58.86 59.125 0 32.654 26.471 59.125 59.125 59.125s59.125-26.471 59.125-59.125c0-0.002 0-0.005 0-0.007v0c-0.126-32.677-26.644-59.118-59.339-59.118-0.018 0-0.037 0-0.055 0h0.003zM664.864 326.459c0-33.492-27.151-60.643-60.643-60.643s-60.643 27.151-60.643 60.643v0 321.895c0 33.492 27.151 60.643 60.643 60.643s60.643-27.151 60.643-60.643v0-321.917z" />
</font>
</defs>
</svg>
